<?xml version="1.0" encoding="utf-8"?>
<!-- Generator: Adobe Illustrator 15.0.0, SVG Export Plug-In . SVG Version: 6.00 Build 0)  -->
<!DOCTYPE svg PUBLIC "-//W3C//DTD SVG 1.1//EN" "http://www.w3.org/Graphics/SVG/1.1/DTD/svg11.dtd">
<svg version="1.1" id="Capa_1" xmlns="http://www.w3.org/2000/svg" xmlns:xlink="http://www.w3.org/1999/xlink" x="0px" y="0px"
	 width="99.212px" height="99.212px" viewBox="0 0 99.212 99.212" enable-background="new 0 0 99.212 99.212" xml:space="preserve">
<g>
	<path fill="#030104" d="M76.254,9.836h4.573l-0.144,0.81h-0.857c-0.429,0-0.715-0.095-0.715-0.095v1.476
		c0,0.525-0.143,1.049-0.143,1.572c0,0.524-0.143,1.047-0.143,1.333h-1.143v-1.333c0-0.523,0.143-1.047,0.143-1.572
		c0-0.57,0.142-1.236,0.142-1.476h-0.57h-0.572c-0.286,0-0.571,0.095-0.571,0.095V9.836L76.254,9.836L76.254,9.836z M81.398,9.836
		h1.571c0,0.285,0.143,0.571,0.143,0.715c0,0.237,0.286,0.666,0.43,1.189c0,0.144,0.143,0.524,0.143,0.809
		c0.142,0.525,0.429,1.05,0.429,1.05c0-0.286,0.285-0.667,0.429-1.19c0.142-0.382,0.428-0.954,0.57-1.334
		c0.144-0.43,0.43-0.953,0.43-1.238h1.715v1.618c0,0.572-0.144,1.335-0.144,1.858v1.619H85.97v-1.048v-1.335
		c0-0.427,0.144-0.809,0.144-1.095v-0.521l-1.572,3.999h-1.144c0-0.286-0.286-0.809-0.286-1.189
		c-0.143-0.667-0.428-1.19-0.428-1.334c0-0.285-0.285-0.81-0.43-1.332v1.332c0,0.381-0.143,0.904-0.143,1.334v1.189h-1.143
		c0-0.523,0.143-1.189,0.143-1.762c0-0.475,0.143-1.144,0.143-1.714C81.254,10.933,81.398,10.408,81.398,9.836L81.398,9.836z
		 M26.436,90.947h-3.049l-1.19-4.286h-5.62l-1.19,4.286h-2.954l5.192-18.956h3.334L26.436,90.947z M21.338,83.565l-2-7.145
		l-1.857,7.145H21.338z M37.39,90.947h-2.572v-1.951c-0.429,0.856-1,1.429-1.524,1.666c-0.523,0.286-1.096,0.62-1.667,0.62
		c-1.048,0-2.095-0.715-2.857-1.905c-0.857-1.095-1.238-3-1.238-5.239c0-2.284,0.381-4.286,1.096-5.478
		c0.762-1.143,1.857-1.856,3.144-1.856c1,0,2.049,0.714,2.953,2v-6.811h2.667V90.947L37.39,90.947z M30.15,83.804
		c0,1.428,0.191,2.713,0.43,3.285c0.429,0.858,1.047,1.43,1.762,1.43c0.667,0,1.191-0.43,1.619-0.952
		c0.429-0.716,0.763-1.905,0.763-3.334c0-1.525-0.238-2.811-0.667-3.526c-0.382-0.713-1.048-1.189-1.715-1.189
		c-0.571,0-1.095,0.477-1.571,1.049C30.341,81.279,30.15,82.375,30.15,83.804L30.15,83.804z M39.581,83.804
		c0-1.097,0.143-2.286,0.571-3.383c0.477-1.142,1.096-1.999,1.858-2.571c0.809-0.618,1.81-1.047,2.763-1.047
		c1.477,0,2.857,0.714,3.763,1.999c1,1.429,1.523,3.334,1.523,5.335s-0.523,3.811-1.523,5.098c-1.048,1.332-2.286,2.047-3.763,2.047
		c-0.905,0-1.81-0.334-2.667-0.857c-0.857-0.572-1.477-1.428-1.953-2.477c-0.429-1.096-0.572-2.524-0.572-3.953V83.804
		L39.581,83.804L39.581,83.804z M42.248,84.137c0,1.429,0.144,2.523,0.571,3.238c0.478,0.714,1.191,1.144,1.858,1.144
		c0.618,0,1.334-0.43,1.762-1.144c0.477-0.715,0.763-1.81,0.763-3.238c0-1.43-0.286-2.619-0.763-3.334
		c-0.428-0.809-1.144-1.286-1.762-1.286c-0.667,0-1.333,0.477-1.715,1.189C42.534,81.516,42.248,82.708,42.248,84.137L42.248,84.137
		z M52.155,90.947V71.991h2.666v6.812c0.764-1.287,1.857-1.999,2.905-1.999c1.238,0,2.287,0.714,3.097,1.856
		c0.809,1.189,1.286,3,1.286,5.335c0,2.286-0.477,4.287-1.286,5.382c-0.857,1.19-1.905,1.905-2.953,1.905
		c-0.571,0-1.191-0.334-1.715-0.62c-0.57-0.237-1.096-0.952-1.383-1.666v1.951H52.155L52.155,90.947z M54.821,83.804
		c0,1.428,0.24,2.713,0.477,3.285c0.428,0.858,1.144,1.43,1.906,1.43c0.666,0,1.189-0.43,1.57-0.952
		c0.43-0.572,0.667-1.905,0.667-3.334c0-1.525-0.237-2.811-0.667-3.526c-0.381-0.713-1.049-1.189-1.715-1.189
		c-0.619,0-1.143,0.477-1.57,1.049C55.061,81.279,54.821,82.375,54.821,83.804L54.821,83.804z M70.206,86.661l2.667,0.429
		c-0.286,1.43-0.953,2.62-1.618,3.145c-0.763,0.572-1.811,1.048-2.906,1.048c-1.619,0-3.049-0.857-3.858-2.286
		c-0.667-1.19-0.953-2.857-0.953-4.763c0-2.239,0.38-4.144,1.237-5.43c0.858-1.286,2.097-2,3.43-2c1.477,0,2.668,0.714,3.479,2
		c0.904,1.429,1.428,3.571,1.428,6.287h-6.904c0,1.19,0.143,1.999,0.619,2.619c0.428,0.572,0.952,0.81,1.523,0.81
		c0.477,0,0.905-0.095,1.096-0.43C69.68,87.804,69.967,87.233,70.206,86.661L70.206,86.661z M70.444,82.851
		c0-1-0.381-1.905-0.668-2.431c-0.38-0.572-0.951-0.903-1.475-0.903c-0.621,0-1.191,0.477-1.477,1.049
		c-0.477,0.57-0.62,1.428-0.62,2.285H70.444L70.444,82.851z"/>
	<path fill="#BF2C2C" d="M11.957,7.931h22.861L11.957,63.609V7.931z M50.392,7.931H73.54v54.963L50.392,7.931z M42.867,29.221
		l12.622,33.387h-7.812l-5.382-10.572h-8.573L42.867,29.221z"/>
</g>
</svg>
