<?xml version="1.0" encoding="utf-8"?>
<!-- Generator: Adobe Illustrator 15.0.0, SVG Export Plug-In . SVG Version: 6.00 Build 0)  -->
<!DOCTYPE svg PUBLIC "-//W3C//DTD SVG 1.1//EN" "http://www.w3.org/Graphics/SVG/1.1/DTD/svg11.dtd">
<svg version="1.1" id="Capa_1" xmlns="http://www.w3.org/2000/svg" xmlns:xlink="http://www.w3.org/1999/xlink" x="0px" y="0px"
	 width="99.212px" height="99.212px" viewBox="0 0 99.212 99.212" enable-background="new 0 0 99.212 99.212" xml:space="preserve">
<g>
	
		<radialGradient id="SVGID_1_" cx="-260.0957" cy="-207.1914" r="0.026" gradientTransform="matrix(2291.6716 0 0 -2218.7549 596089.8125 -459678.9688)" gradientUnits="userSpaceOnUse">
		<stop  offset="0" style="stop-color:#432E53;stop-opacity:0.98"/>
		<stop  offset="1" style="stop-color:#13022B"/>
	</radialGradient>
	<path fill="url(#SVGID_1_)" d="M10.551,11.617h78.11v75.979h-78.11V11.617z"/>
	<path fill="#BA9AC2" d="M10.551,11.617h78.11v75.979h-78.11V11.617z M7,91.147h85.212V8.066H7V91.147z M67.288,48.116
		c1.812,0,2.45,0,2.628-0.072c0-0.247,0.07-0.426,0.07-0.603c0-1.917-0.924-5.469-4.615-5.469c-3.408,0-4.863,2.983-5.219,6.144
		H67.288L67.288,48.116z M60.08,52.98c0.072,4.793,2.344,8.023,7.74,8.023c2.096,0,3.906-0.283,5.788-1.102
		c0.248-0.105,0.426-0.07,0.426,0.25v4.438c0,0.354-0.106,0.532-0.354,0.71c-1.883,0.922-4.226,1.35-7.137,1.35
		c-9.374,0-12.889-6.925-12.889-14.629c0-8.379,4.332-15.231,11.965-15.231c7.74,0,10.439,6.498,10.439,11.788
		c0,1.703-0.107,3.088-0.284,3.764c-0.071,0.284-0.178,0.39-0.462,0.461c-0.711,0.107-2.805,0.249-5.93,0.249H60.08V52.98z
		 M41.049,49.358c-0.993-3.941-3.408-12.533-4.296-16.688h-0.07c-0.746,4.154-2.699,11.184-4.155,16.688H41.049z M31.073,55.109
		l-2.805,10.617c-0.071,0.283-0.178,0.391-0.532,0.391h-5.22c-0.354,0-0.427-0.106-0.354-0.532l10.083-35.257
		c0.177-0.64,0.283-1.136,0.354-2.912c0-0.248,0.106-0.354,0.284-0.354h7.456c0.249,0,0.355,0.071,0.427,0.354l11.29,38.24
		c0.071,0.282,0,0.461-0.283,0.461h-5.859c-0.284,0-0.461-0.106-0.532-0.355l-2.911-10.65H31.073V55.109z"/>
</g>
</svg>
