<?xml version="1.0" encoding="utf-8"?>
<!-- Generator: Adobe Illustrator 15.0.0, SVG Export Plug-In . SVG Version: 6.00 Build 0)  -->
<!DOCTYPE svg PUBLIC "-//W3C//DTD SVG 1.1//EN" "http://www.w3.org/Graphics/SVG/1.1/DTD/svg11.dtd">
<svg version="1.1" id="Capa_1" xmlns="http://www.w3.org/2000/svg" xmlns:xlink="http://www.w3.org/1999/xlink" x="0px" y="0px"
	 width="99.211px" height="99.211px" viewBox="0 0 99.211 99.211" enable-background="new 0 0 99.211 99.211" xml:space="preserve">
<g id="XMLID_1_">
	<rect id="XMLID_3_" x="6.383" y="6.382" fill="#35FA00" width="86.444" height="86.446"/>
	<rect id="XMLID_5_" x="10.187" y="10.186" fill="#072600" width="78.838" height="78.84"/>
	<g id="XMLID_8_">
		<g>
			<path fill="#35FA00" d="M18.108,27.708c0-0.238,0.049-0.357,0.346-0.417c2.974-0.119,6.689-0.178,9.911-0.178
				c11.197,0,16.846,7.672,16.846,19.09c0,16.95-11.099,19.985-17.837,19.985c-3.519,0-6.095-0.061-8.92-0.119
				c-0.247,0-0.346-0.119-0.346-0.537V27.708z M24.103,60.477c0.892,0.061,2.081,0.061,3.469,0.061
				c6.937,0,11.495-4.342,11.495-14.155c0-8.981-3.914-13.561-10.702-13.561c-2.23,0-3.816,0.06-4.262,0.119V60.477z"/>
		</g>
	</g>
	<g id="XMLID_2_">
		<g>
			<path fill="#35FA00" d="M70.363,66.403c-0.341,0-0.438-0.119-0.536-0.475c-2.726-13.264-3.65-18.26-4.138-21.054H65.64
				c-0.486,2.973-1.655,8.266-4.722,21.054c-0.097,0.355-0.243,0.475-0.535,0.475H54.98c-0.438,0-0.535-0.18-0.632-0.535
				L47.97,37.975c-0.097-0.297,0-0.476,0.293-0.476h5.208c0.291,0,0.389,0.06,0.438,0.357c3.309,15.404,3.991,19.745,4.332,21.885
				h0.098c0.193-1.01,1.412-7.195,4.624-21.766c0.048-0.357,0.098-0.476,0.438-0.476h5.209c0.244,0,0.341,0.119,0.39,0.357
				c3.163,15.167,3.942,19.924,4.283,22.065h0.098c0.584-3.51,1.509-9.219,4.526-22.005c0.051-0.297,0.195-0.417,0.391-0.417h4.818
				c0.195,0,0.341,0.119,0.292,0.417l-7.059,28.013c-0.097,0.355-0.145,0.475-0.534,0.475H70.363z"/>
		</g>
	</g>
</g>
</svg>
