<?xml version="1.0" encoding="utf-8"?>
<!-- Generator: Adobe Illustrator 15.0.0, SVG Export Plug-In . SVG Version: 6.00 Build 0)  -->
<!DOCTYPE svg PUBLIC "-//W3C//DTD SVG 1.1//EN" "http://www.w3.org/Graphics/SVG/1.1/DTD/svg11.dtd">
<svg version="1.1" id="Capa_1" xmlns="http://www.w3.org/2000/svg" xmlns:xlink="http://www.w3.org/1999/xlink" x="0px" y="0px"
	 width="99.211px" height="99.211px" viewBox="0 0 99.211 99.211" enable-background="new 0 0 99.211 99.211" xml:space="preserve">
<g id="XMLID_1_">
	<rect id="XMLID_3_" x="10.187" y="10.186" fill="#35FA00" width="78.836" height="78.838"/>
	<rect id="XMLID_5_" x="13.656" y="13.655" fill="#072600" width="71.899" height="71.9"/>
	<g id="XMLID_8_">
		<g>
			<path fill="#35FA00" d="M20.88,29.635c0-0.217,0.045-0.326,0.316-0.38c2.712-0.108,6.1-0.163,9.039-0.163
				c10.211,0,15.363,6.997,15.363,17.41c0,15.458-10.122,18.226-16.267,18.226c-3.209,0-5.559-0.056-8.135-0.109
				c-0.225,0-0.316-0.107-0.316-0.488V29.635z M26.348,59.52c0.813,0.057,1.898,0.057,3.163,0.057
				c6.327,0,10.483-3.961,10.483-12.91c0-8.19-3.569-12.368-9.76-12.368c-2.034,0-3.48,0.055-3.887,0.109V59.52z"/>
		</g>
	</g>
	<g id="XMLID_2_">
		<g>
			<path fill="#35FA00" d="M68.536,64.924c-0.312,0-0.399-0.107-0.489-0.433c-2.485-12.097-3.328-16.653-3.773-19.201h-0.044
				c-0.443,2.711-1.511,7.539-4.308,19.201c-0.089,0.324-0.222,0.433-0.487,0.433h-4.927c-0.4,0-0.488-0.164-0.577-0.487
				l-5.816-25.438c-0.089-0.271,0-0.434,0.267-0.434h4.75c0.265,0,0.354,0.055,0.399,0.326c3.018,14.048,3.64,18.007,3.951,19.958
				h0.089c0.176-0.921,1.288-6.562,4.217-19.85c0.045-0.325,0.089-0.434,0.399-0.434h4.75c0.223,0,0.312,0.109,0.356,0.326
				c2.885,13.833,3.595,18.169,3.906,20.123h0.089c0.533-3.2,1.377-8.407,4.128-20.068c0.047-0.271,0.178-0.38,0.356-0.38h4.395
				c0.177,0,0.311,0.109,0.266,0.38l-6.437,25.548c-0.09,0.323-0.133,0.433-0.488,0.433h-4.972V64.924z"/>
		</g>
	</g>
</g>
</svg>
