<?xml version="1.0" encoding="utf-8"?>
<!-- Generator: Adobe Illustrator 15.0.0, SVG Export Plug-In . SVG Version: 6.00 Build 0)  -->
<!DOCTYPE svg PUBLIC "-//W3C//DTD SVG 1.1//EN" "http://www.w3.org/Graphics/SVG/1.1/DTD/svg11.dtd">
<svg version="1.1" id="Layer_1" xmlns="http://www.w3.org/2000/svg" xmlns:xlink="http://www.w3.org/1999/xlink" x="0px" y="0px"
	 width="200px" height="200px" viewBox="0 0 200 200" enable-background="new 0 0 200 200" xml:space="preserve">
<g id="XMLID_1_">
	<rect id="XMLID_3_" x="13.5" y="12.5" fill="#FF4A19" width="174" height="174"/>
	<rect id="XMLID_5_" x="21.156" y="20.156" fill="#260600" width="158.688" height="158.688"/>
	<g id="XMLID_9_">
		<g>
			<path fill="#FF4A19" d="M76.568,131.679c0,0.719-0.206,0.958-0.824,0.958H64.728c-0.411,0-0.617-0.358-0.617-0.958V55.424
				c0-0.718,0.103-0.838,0.721-0.838h39.64c0.618,0,0.824,0.12,0.928,0.838l0.926,9.697c0.104,0.718-0.103,1.077-0.72,1.077H76.568
				v22.745h26.05c0.618,0,0.824,0.239,0.824,0.837v9.937c0,0.598-0.31,0.838-0.824,0.838h-26.05V131.679z"/>
		</g>
	</g>
	<path id="XMLID_4_" fill="#FF4A19" d="M138.029,123.375c-0.809,0.12-1.919,0.239-2.526,0.239c-1.82,0-3.335-0.838-3.335-4.549
		V59.183v-4.655v-0.615h0.427c-0.101,0-0.317,0-0.734,0h-10.521c-0.443,0-0.669,0-0.759,0h-0.244v0.615v4.655v60.602
		c0,11.611,4.649,14.724,11.125,14.724c2.832,0,5.205-0.598,6.318-1.196c0.606-0.239,0.652-0.479,0.652-1.317v-8.021
		C138.432,123.495,138.333,123.255,138.029,123.375z"/>
</g>
</svg>
