<?xml version="1.0" encoding="utf-8"?>
<!-- Generator: Adobe Illustrator 15.0.0, SVG Export Plug-In . SVG Version: 6.00 Build 0)  -->
<!DOCTYPE svg PUBLIC "-//W3C//DTD SVG 1.1//EN" "http://www.w3.org/Graphics/SVG/1.1/DTD/svg11.dtd">
<svg version="1.1" id="Capa_1" xmlns="http://www.w3.org/2000/svg" xmlns:xlink="http://www.w3.org/1999/xlink" x="0px" y="0px"
	 width="99.212px" height="99.212px" viewBox="0 0 99.212 99.212" enable-background="new 0 0 99.212 99.212" xml:space="preserve">
<g>
	<g>
		<g>
			<defs>
				<path id="SVGID_1_" d="M7.745,7.743h79.816v79.819H7.745V7.743z"/>
			</defs>
			<clipPath id="SVGID_2_">
				<use xlink:href="#SVGID_1_"  overflow="visible"/>
			</clipPath>
			<rect x="7.745" y="7.743" clip-path="url(#SVGID_2_)" fill="#E8E7E6" width="79.816" height="79.819"/>
			<path clip-path="url(#SVGID_2_)" fill="#E8E7E6" d="M72.191,12.598c0,22.04-17.867,39.907-39.908,39.907
				c-5.51,0-10.76-1.116-15.534-3.136c-2.387-1.01-4.656-2.245-6.779-3.68c-0.531-0.358-1.052-0.729-1.565-1.112
				c-0.256-0.192-0.509-0.386-0.761-0.583h0.068V7.708h64.159V7.515c0.042,0.332,0.08,0.667,0.114,1.002
				C72.121,9.859,72.191,11.22,72.191,12.598z"/>
			<path clip-path="url(#SVGID_2_)" fill="#E9E8E7" d="M70.815,12.598c0,21.28-17.251,38.531-38.532,38.531
				c-5.32,0-10.389-1.078-14.999-3.028c-2.305-0.975-4.495-2.167-6.545-3.552c-1.025-0.693-2.015-1.434-2.966-2.219
				c-0.06-0.049-0.119-0.099-0.178-0.147h0.117V7.708h62.793V7.69c0.041,0.321,0.078,0.645,0.11,0.968
				C70.748,9.954,70.815,11.267,70.815,12.598z"/>
			<path clip-path="url(#SVGID_2_)" fill="#EAE9E8" d="M69.439,12.598c0,20.52-16.635,37.155-37.156,37.155
				c-5.13,0-10.018-1.04-14.463-2.919c-2.223-0.941-4.334-2.092-6.311-3.427c-0.989-0.668-1.943-1.382-2.861-2.14
				c-0.229-0.188-0.457-0.38-0.681-0.575c-0.112-0.097-0.224-0.195-0.335-0.294h0.08V7.708H69.11V7.633
				c0.011,0.077,0.021,0.155,0.03,0.232c0.039,0.31,0.075,0.62,0.106,0.934C69.375,10.047,69.439,11.315,69.439,12.598z"/>
			<path clip-path="url(#SVGID_2_)" fill="#EAEAE9" d="M68.062,12.598c0,19.761-16.019,35.779-35.779,35.779
				c-4.94,0-9.646-1.001-13.927-2.812c-2.14-0.906-4.174-2.013-6.078-3.299c-0.952-0.644-1.871-1.331-2.754-2.061
				c-0.441-0.364-0.875-0.739-1.298-1.124c-0.212-0.192-0.421-0.388-0.628-0.585h0.115V7.708h60.003V7.594
				c0.021,0.148,0.04,0.297,0.06,0.446c0.038,0.299,0.072,0.599,0.104,0.898C68,10.142,68.062,11.363,68.062,12.598z"/>
			<path clip-path="url(#SVGID_2_)" fill="#EBEBEA" d="M66.687,12.598c0,19-15.403,34.403-34.404,34.403
				c-9.5,0-18.101-3.851-24.327-10.077c-0.097-0.098-0.194-0.195-0.29-0.293h0.046V7.708h58.61V7.573
				c0.011,0.07,0.021,0.143,0.031,0.213c0.02,0.144,0.039,0.287,0.057,0.43c0.037,0.288,0.07,0.576,0.1,0.865
				C66.626,10.237,66.687,11.41,66.687,12.598z"/>
			<path clip-path="url(#SVGID_2_)" fill="#ECECEB" d="M65.31,12.598c0,18.24-14.787,33.027-33.027,33.027
				c-9.12,0-17.377-3.697-23.354-9.674c-0.374-0.373-0.738-0.757-1.093-1.147c-0.089-0.098-0.177-0.196-0.265-0.295h0.141V7.708
				h57.217V7.568c0.084,0.547,0.154,1.098,0.211,1.652C65.252,10.332,65.31,11.458,65.31,12.598z"/>
			<path clip-path="url(#SVGID_2_)" fill="#EDEDEC" d="M63.935,12.598c0,17.479-14.171,31.651-31.652,31.651
				c-8.741,0-16.653-3.544-22.381-9.271c-0.716-0.717-1.398-1.467-2.042-2.248c-0.081-0.099-0.161-0.196-0.241-0.295h0.093V7.708
				h55.827V7.581c0.011,0.066,0.021,0.132,0.031,0.197c0.08,0.523,0.146,1.052,0.201,1.584
				C63.878,10.425,63.935,11.505,63.935,12.598z"/>
			<path clip-path="url(#SVGID_2_)" fill="#EEEEED" d="M62.558,12.598c0,16.721-13.555,30.274-30.275,30.274
				c-8.36,0-15.929-3.389-21.408-8.867c-0.685-0.685-1.337-1.402-1.954-2.15c-0.309-0.373-0.608-0.755-0.899-1.144
				c-0.145-0.194-0.288-0.39-0.429-0.588h0.119V7.708H62.15V7.612c0.02,0.125,0.04,0.25,0.06,0.375
				c0.076,0.502,0.141,1.006,0.192,1.516C62.505,10.52,62.558,11.552,62.558,12.598z"/>
			<path clip-path="url(#SVGID_2_)" fill="#EFEFEE" d="M61.182,12.598c0,15.96-12.938,28.898-28.899,28.898
				c-7.98,0-15.205-3.234-20.435-8.464c-1.308-1.309-2.491-2.739-3.529-4.277c-0.259-0.385-0.51-0.775-0.751-1.173h0.144V7.708
				H60.73V7.482c0.043,0.237,0.082,0.476,0.119,0.715c0.072,0.479,0.135,0.961,0.184,1.446C61.131,10.614,61.182,11.6,61.182,12.598
				z"/>
			<path clip-path="url(#SVGID_2_)" fill="#F0F0EF" d="M59.806,12.598c0,15.2-12.323,27.522-27.523,27.522
				c-7.6,0-14.481-3.081-19.462-8.062c-1.245-1.245-2.372-2.609-3.361-4.073c-0.495-0.732-0.955-1.489-1.378-2.27
				c-0.106-0.194-0.21-0.391-0.311-0.589c-0.051-0.099-0.101-0.198-0.15-0.298h0.091V7.708h51.633V7.556
				c0.011,0.057,0.021,0.112,0.031,0.17c0.039,0.226,0.078,0.453,0.112,0.68c0.069,0.456,0.128,0.916,0.175,1.378
				C59.757,10.708,59.806,11.647,59.806,12.598z"/>
			<path clip-path="url(#SVGID_2_)" fill="#F1F1F0" d="M58.429,12.598c0,14.439-11.706,26.146-26.146,26.146
				c-7.22,0-13.757-2.927-18.489-7.659c-2.366-2.365-4.28-5.183-5.603-8.311c-0.166-0.391-0.322-0.787-0.469-1.187
				c-0.073-0.201-0.144-0.402-0.212-0.604h0.202V7.708h50.25V7.648c0.021,0.107,0.04,0.214,0.06,0.321
				c0.039,0.215,0.074,0.43,0.107,0.646c0.066,0.433,0.121,0.869,0.166,1.309C58.384,10.803,58.429,11.695,58.429,12.598z"/>
			<path clip-path="url(#SVGID_2_)" fill="#F2F2F1" d="M57.053,12.598c0,13.68-11.09,24.771-24.77,24.771
				c-13.681,0-24.771-11.091-24.771-24.771c0-1.711,0.173-3.38,0.503-4.992v0.103H56.55V7.606
				C56.88,9.218,57.053,10.887,57.053,12.598z"/>
			<path clip-path="url(#SVGID_2_)" fill="#F3F3F2" d="M55.677,12.598c0,12.92-10.474,23.394-23.394,23.394
				S8.889,25.518,8.889,12.598c0-1.615,0.164-3.192,0.475-4.715c0.02-0.096,0.04-0.19,0.061-0.285v0.11h45.718v-0.11
				c0.021,0.095,0.041,0.189,0.061,0.285C55.513,9.406,55.677,10.983,55.677,12.598z"/>
			<path clip-path="url(#SVGID_2_)" fill="#F4F4F3" d="M54.301,12.598c0,12.16-9.858,22.018-22.018,22.018
				c-12.161,0-22.019-9.857-22.019-22.018c0-1.521,0.154-3.005,0.447-4.438c0.037-0.18,0.076-0.357,0.117-0.536v0.084h42.909V7.625
				c0.041,0.179,0.08,0.356,0.116,0.536C54.148,9.593,54.301,11.078,54.301,12.598z"/>
			<path clip-path="url(#SVGID_2_)" fill="#F5F5F4" d="M52.925,12.598c0,11.399-9.242,20.642-20.642,20.642
				s-20.643-9.242-20.643-20.642c0-1.426,0.145-2.816,0.42-4.16c0.034-0.168,0.071-0.336,0.109-0.502
				c0.019-0.083,0.039-0.166,0.059-0.25v0.022h40.109V7.686c0.02,0.084,0.04,0.167,0.059,0.25c0.039,0.166,0.075,0.334,0.109,0.502
				C52.781,9.782,52.925,11.172,52.925,12.598z"/>
			<path clip-path="url(#SVGID_2_)" fill="#F6F6F5" d="M51.549,12.598c0,10.641-8.626,19.266-19.266,19.266
				s-19.266-8.625-19.266-19.266c0-1.331,0.135-2.629,0.392-3.883c0.064-0.313,0.136-0.624,0.215-0.933
				c0.02-0.077,0.04-0.154,0.061-0.23v0.156h37.197V7.552c0.021,0.076,0.042,0.153,0.062,0.23c0.078,0.309,0.15,0.619,0.215,0.933
				C51.414,9.969,51.549,11.267,51.549,12.598z"/>
			<path clip-path="url(#SVGID_2_)" fill="#F6F7F6" d="M50.173,12.598c0,9.88-8.009,17.889-17.89,17.889s-17.89-8.009-17.89-17.889
				c0-1.235,0.125-2.441,0.364-3.605c0.059-0.291,0.126-0.58,0.2-0.866c0.037-0.143,0.075-0.285,0.115-0.426v0.008h34.422V7.701
				c0.04,0.141,0.079,0.283,0.115,0.426c0.074,0.286,0.14,0.575,0.2,0.866C50.047,10.157,50.173,11.363,50.173,12.598z"/>
			<path clip-path="url(#SVGID_2_)" fill="#F7F7F7" d="M48.797,12.598c0,9.12-7.394,16.513-16.514,16.513S15.77,21.718,15.77,12.598
				c0-1.141,0.115-2.254,0.335-3.328c0.11-0.538,0.246-1.065,0.407-1.583v0.021h31.542V7.687c0.161,0.518,0.297,1.045,0.407,1.583
				C48.681,10.344,48.797,11.458,48.797,12.598z"/>
			<path clip-path="url(#SVGID_2_)" fill="#F8F8F8" d="M47.42,12.598c0,8.359-6.777,15.137-15.137,15.137
				s-15.138-6.777-15.138-15.137c0-1.046,0.106-2.065,0.308-3.051c0.101-0.493,0.226-0.978,0.373-1.451
				c0.037-0.118,0.075-0.236,0.115-0.354c0.02-0.059,0.04-0.117,0.061-0.176v0.142h28.563V7.567
				c0.021,0.059,0.041,0.117,0.061,0.176c0.04,0.117,0.078,0.235,0.115,0.354c0.147,0.474,0.272,0.958,0.373,1.451
				C47.315,10.533,47.42,11.552,47.42,12.598z"/>
			<path clip-path="url(#SVGID_2_)" fill="#F9F9F9" d="M46.044,12.598c0,7.6-6.161,13.761-13.761,13.761
				s-13.762-6.161-13.762-13.761c0-0.951,0.096-1.878,0.28-2.773c0.092-0.448,0.205-0.889,0.339-1.319
				c0.066-0.216,0.139-0.429,0.216-0.64c0.039-0.105,0.079-0.21,0.12-0.314v0.157H45.09V7.551c0.041,0.104,0.081,0.209,0.12,0.314
				c0.077,0.211,0.149,0.424,0.216,0.64c0.134,0.431,0.247,0.871,0.339,1.319C45.948,10.72,46.044,11.647,46.044,12.598z"/>
			<path clip-path="url(#SVGID_2_)" fill="#FAFAFA" d="M44.668,12.598c0,6.84-5.545,12.385-12.385,12.385
				s-12.385-5.545-12.385-12.385c0-1.711,0.347-3.34,0.973-4.821c0.039-0.093,0.08-0.185,0.121-0.276v0.208h22.583V7.5
				c0.042,0.092,0.082,0.184,0.121,0.276C44.322,9.258,44.668,10.887,44.668,12.598z"/>
			<path clip-path="url(#SVGID_2_)" fill="#FBFBFB" d="M43.292,12.598c0,6.08-4.929,11.009-11.009,11.009
				s-11.009-4.929-11.009-11.009c0-1.521,0.308-2.969,0.865-4.286c0.069-0.164,0.143-0.326,0.221-0.487
				c0.039-0.08,0.078-0.16,0.119-0.239v0.123h19.609V7.585c0.041,0.079,0.08,0.159,0.119,0.239c0.078,0.161,0.15,0.323,0.22,0.487
				C42.984,9.629,43.292,11.078,43.292,12.598z"/>
			<path clip-path="url(#SVGID_2_)" fill="#FCFCFB" d="M41.916,12.598c0,5.319-4.313,9.633-9.633,9.633
				c-5.32,0-9.633-4.313-9.633-9.633c0-1.331,0.269-2.598,0.757-3.75c0.122-0.288,0.257-0.569,0.406-0.842
				c0.074-0.137,0.151-0.271,0.231-0.404v0.106h16.477V7.602c0.081,0.133,0.158,0.268,0.232,0.404
				c0.148,0.272,0.284,0.554,0.406,0.842C41.646,10,41.916,11.267,41.916,12.598z"/>
			<path clip-path="url(#SVGID_2_)" fill="#FCFDFC" d="M40.54,12.598c0,4.56-3.696,8.257-8.256,8.257s-8.257-3.697-8.257-8.257
				c0-1.141,0.231-2.227,0.649-3.215c0.208-0.493,0.464-0.963,0.761-1.401c0.074-0.11,0.151-0.219,0.23-0.325v0.052h13.233V7.657
				c0.08,0.106,0.156,0.215,0.23,0.325c0.296,0.438,0.552,0.908,0.761,1.401C40.309,10.372,40.54,11.458,40.54,12.598z"/>
			<path clip-path="url(#SVGID_2_)" fill="#FDFDFD" d="M39.164,12.598c0,3.8-3.081,6.881-6.88,6.881c-3.8,0-6.881-3.081-6.881-6.881
				c0-1.9,0.77-3.62,2.015-4.866c0.078-0.078,0.158-0.153,0.239-0.228v0.204h9.253V7.504c0.081,0.074,0.161,0.149,0.239,0.228
				C38.394,8.978,39.164,10.698,39.164,12.598z"/>
			<path clip-path="url(#SVGID_2_)" fill="#FEFEFE" d="M37.788,12.598c0,3.04-2.464,5.504-5.504,5.504s-5.505-2.464-5.505-5.504
				c0-1.521,0.616-2.896,1.612-3.894c0.498-0.497,1.091-0.9,1.75-1.179v0.183h4.285V7.526c0.659,0.278,1.251,0.682,1.75,1.179
				C37.171,9.702,37.788,11.078,37.788,12.598z"/>
			<circle clip-path="url(#SVGID_2_)" fill="#FEFEFE" cx="32.283" cy="12.598" r="4.129"/>
			<circle clip-path="url(#SVGID_2_)" fill="#FFFFFF" cx="32.283" cy="12.598" r="2.752"/>
			<circle clip-path="url(#SVGID_2_)" fill="#FFFFFF" cx="32.283" cy="12.598" r="1.376"/>
		</g>
	</g>
	<g>
		<g>
			<defs>
				<path id="SVGID_3_" d="M9.656,89.125l-1.911-1.916V7.743l1.953,1.953l1.953,1.953l-0.042,39.696l-0.043,39.696L9.656,89.125
					L9.656,89.125z"/>
			</defs>
			<clipPath id="SVGID_4_">
				<use xlink:href="#SVGID_3_"  overflow="visible"/>
			</clipPath>
			<rect x="7.746" y="82.08" clip-path="url(#SVGID_4_)" fill="#4C0B1C" width="3.906" height="8.962"/>
			<rect x="7.746" y="81.341" clip-path="url(#SVGID_4_)" fill="#4C0B1C" width="3.906" height="0.738"/>
			<rect x="7.746" y="80.603" clip-path="url(#SVGID_4_)" fill="#4D0C1C" width="3.906" height="0.738"/>
			<rect x="7.746" y="79.865" clip-path="url(#SVGID_4_)" fill="#4E0D1C" width="3.906" height="0.738"/>
			<rect x="7.746" y="79.126" clip-path="url(#SVGID_4_)" fill="#4E0E1D" width="3.906" height="0.738"/>
			<rect x="7.746" y="78.388" clip-path="url(#SVGID_4_)" fill="#4F0F1D" width="3.906" height="0.738"/>
			<rect x="7.746" y="77.65" clip-path="url(#SVGID_4_)" fill="#4F0F1D" width="3.906" height="0.738"/>
			<rect x="7.746" y="76.912" clip-path="url(#SVGID_4_)" fill="#50101D" width="3.906" height="0.738"/>
			<rect x="7.746" y="76.174" clip-path="url(#SVGID_4_)" fill="#50101D" width="3.906" height="0.737"/>
			<rect x="7.746" y="75.435" clip-path="url(#SVGID_4_)" fill="#51111D" width="3.906" height="0.739"/>
			<rect x="7.746" y="74.697" clip-path="url(#SVGID_4_)" fill="#51111E" width="3.906" height="0.738"/>
			<rect x="7.746" y="73.959" clip-path="url(#SVGID_4_)" fill="#52111E" width="3.906" height="0.737"/>
			<rect x="7.746" y="73.221" clip-path="url(#SVGID_4_)" fill="#52111E" width="3.906" height="0.738"/>
			<rect x="7.746" y="72.483" clip-path="url(#SVGID_4_)" fill="#53121E" width="3.906" height="0.738"/>
			<rect x="7.746" y="71.744" clip-path="url(#SVGID_4_)" fill="#54121E" width="3.906" height="0.739"/>
			<rect x="7.746" y="71.006" clip-path="url(#SVGID_4_)" fill="#54121E" width="3.906" height="0.737"/>
			<rect x="7.746" y="70.268" clip-path="url(#SVGID_4_)" fill="#55131E" width="3.906" height="0.738"/>
			<rect x="7.746" y="69.53" clip-path="url(#SVGID_4_)" fill="#55131E" width="3.906" height="0.738"/>
			<rect x="7.746" y="68.792" clip-path="url(#SVGID_4_)" fill="#56131F" width="3.906" height="0.738"/>
			<rect x="7.746" y="68.053" clip-path="url(#SVGID_4_)" fill="#56131F" width="3.906" height="0.738"/>
			<rect x="7.746" y="67.315" clip-path="url(#SVGID_4_)" fill="#57141F" width="3.906" height="0.738"/>
			<rect x="7.746" y="66.577" clip-path="url(#SVGID_4_)" fill="#57141F" width="3.906" height="0.738"/>
			<rect x="7.746" y="65.838" clip-path="url(#SVGID_4_)" fill="#58141F" width="3.906" height="0.738"/>
			<rect x="7.746" y="65.1" clip-path="url(#SVGID_4_)" fill="#59151F" width="3.906" height="0.738"/>
			<rect x="7.746" y="64.362" clip-path="url(#SVGID_4_)" fill="#59151F" width="3.906" height="0.738"/>
			<rect x="7.746" y="63.624" clip-path="url(#SVGID_4_)" fill="#5A151F" width="3.906" height="0.738"/>
			<rect x="7.746" y="62.885" clip-path="url(#SVGID_4_)" fill="#5A1520" width="3.906" height="0.738"/>
			<rect x="7.746" y="62.147" clip-path="url(#SVGID_4_)" fill="#5B1620" width="3.906" height="0.738"/>
			<rect x="7.746" y="61.409" clip-path="url(#SVGID_4_)" fill="#5C1620" width="3.906" height="0.738"/>
			<rect x="7.746" y="60.67" clip-path="url(#SVGID_4_)" fill="#5C1620" width="3.906" height="0.738"/>
			<rect x="7.746" y="59.932" clip-path="url(#SVGID_4_)" fill="#5D1620" width="3.906" height="0.738"/>
			<rect x="7.746" y="59.195" clip-path="url(#SVGID_4_)" fill="#5D1720" width="3.906" height="0.737"/>
			<rect x="7.746" y="58.456" clip-path="url(#SVGID_4_)" fill="#5E1720" width="3.906" height="0.739"/>
			<rect x="7.746" y="57.717" clip-path="url(#SVGID_4_)" fill="#5E1720" width="3.906" height="0.738"/>
			<rect x="7.746" y="56.98" clip-path="url(#SVGID_4_)" fill="#5F1721" width="3.906" height="0.737"/>
			<rect x="7.746" y="56.242" clip-path="url(#SVGID_4_)" fill="#601821" width="3.906" height="0.738"/>
			<rect x="7.746" y="55.502" clip-path="url(#SVGID_4_)" fill="#601821" width="3.906" height="0.739"/>
			<rect x="7.746" y="54.764" clip-path="url(#SVGID_4_)" fill="#611821" width="3.906" height="0.738"/>
			<rect x="7.746" y="54.027" clip-path="url(#SVGID_4_)" fill="#611821" width="3.906" height="0.737"/>
			<rect x="7.746" y="53.289" clip-path="url(#SVGID_4_)" fill="#621921" width="3.906" height="0.738"/>
			<rect x="7.746" y="52.55" clip-path="url(#SVGID_4_)" fill="#631921" width="3.906" height="0.738"/>
			<rect x="7.746" y="51.812" clip-path="url(#SVGID_4_)" fill="#631921" width="3.906" height="0.738"/>
			<rect x="7.746" y="51.074" clip-path="url(#SVGID_4_)" fill="#641921" width="3.906" height="0.738"/>
			<rect x="7.746" y="50.335" clip-path="url(#SVGID_4_)" fill="#651921" width="3.906" height="0.738"/>
			<rect x="7.746" y="49.597" clip-path="url(#SVGID_4_)" fill="#651921" width="3.906" height="0.738"/>
			<rect x="7.746" y="48.859" clip-path="url(#SVGID_4_)" fill="#661A21" width="3.906" height="0.738"/>
			<rect x="7.746" y="48.121" clip-path="url(#SVGID_4_)" fill="#661A21" width="3.906" height="0.738"/>
			<rect x="7.746" y="47.382" clip-path="url(#SVGID_4_)" fill="#671A22" width="3.906" height="0.738"/>
			<rect x="7.746" y="46.644" clip-path="url(#SVGID_4_)" fill="#681A22" width="3.906" height="0.738"/>
			<rect x="7.746" y="45.907" clip-path="url(#SVGID_4_)" fill="#681A22" width="3.906" height="0.737"/>
			<rect x="7.746" y="45.167" clip-path="url(#SVGID_4_)" fill="#691A22" width="3.906" height="0.739"/>
			<rect x="7.746" y="44.429" clip-path="url(#SVGID_4_)" fill="#6A1B22" width="3.906" height="0.738"/>
			<rect x="7.746" y="43.692" clip-path="url(#SVGID_4_)" fill="#6A1B22" width="3.906" height="0.737"/>
			<rect x="7.746" y="42.954" clip-path="url(#SVGID_4_)" fill="#6B1B22" width="3.906" height="0.738"/>
			<rect x="7.746" y="42.215" clip-path="url(#SVGID_4_)" fill="#6C1B22" width="3.906" height="0.738"/>
			<rect x="7.746" y="41.476" clip-path="url(#SVGID_4_)" fill="#6C1B22" width="3.906" height="0.739"/>
			<rect x="7.746" y="40.739" clip-path="url(#SVGID_4_)" fill="#6D1B22" width="3.906" height="0.737"/>
			<rect x="7.746" y="40" clip-path="url(#SVGID_4_)" fill="#6D1B22" width="3.906" height="0.738"/>
			<rect x="7.746" y="39.262" clip-path="url(#SVGID_4_)" fill="#6E1C22" width="3.906" height="0.738"/>
			<rect x="7.746" y="38.524" clip-path="url(#SVGID_4_)" fill="#6F1C22" width="3.906" height="0.738"/>
			<rect x="7.746" y="37.786" clip-path="url(#SVGID_4_)" fill="#6F1C22" width="3.906" height="0.738"/>
			<rect x="7.746" y="37.047" clip-path="url(#SVGID_4_)" fill="#701C22" width="3.906" height="0.738"/>
			<rect x="7.746" y="36.309" clip-path="url(#SVGID_4_)" fill="#711C22" width="3.906" height="0.738"/>
			<rect x="7.746" y="35.571" clip-path="url(#SVGID_4_)" fill="#711C22" width="3.906" height="0.738"/>
			<rect x="7.746" y="34.833" clip-path="url(#SVGID_4_)" fill="#721C22" width="3.906" height="0.738"/>
			<rect x="7.746" y="34.094" clip-path="url(#SVGID_4_)" fill="#731C22" width="3.906" height="0.738"/>
			<rect x="7.746" y="33.356" clip-path="url(#SVGID_4_)" fill="#731D22" width="3.906" height="0.738"/>
			<rect x="7.746" y="32.618" clip-path="url(#SVGID_4_)" fill="#741D22" width="3.906" height="0.738"/>
			<rect x="7.746" y="31.88" clip-path="url(#SVGID_4_)" fill="#751D22" width="3.906" height="0.737"/>
			<rect x="7.746" y="31.141" clip-path="url(#SVGID_4_)" fill="#751D22" width="3.906" height="0.739"/>
			<rect x="7.746" y="30.403" clip-path="url(#SVGID_4_)" fill="#761D22" width="3.906" height="0.738"/>
			<rect x="7.746" y="29.666" clip-path="url(#SVGID_4_)" fill="#771D22" width="3.906" height="0.737"/>
			<rect x="7.746" y="28.927" clip-path="url(#SVGID_4_)" fill="#771D22" width="3.906" height="0.738"/>
			<rect x="7.746" y="28.188" clip-path="url(#SVGID_4_)" fill="#781D22" width="3.906" height="0.739"/>
			<rect x="7.746" y="27.45" clip-path="url(#SVGID_4_)" fill="#791E21" width="3.906" height="0.738"/>
			<rect x="7.746" y="26.712" clip-path="url(#SVGID_4_)" fill="#7A1E21" width="3.906" height="0.737"/>
			<rect x="7.746" y="25.974" clip-path="url(#SVGID_4_)" fill="#7A1E21" width="3.906" height="0.738"/>
			<rect x="7.746" y="25.236" clip-path="url(#SVGID_4_)" fill="#7B1E21" width="3.906" height="0.738"/>
			<rect x="7.746" y="24.498" clip-path="url(#SVGID_4_)" fill="#7C1E21" width="3.906" height="0.738"/>
			<rect x="7.746" y="23.759" clip-path="url(#SVGID_4_)" fill="#7C1E21" width="3.906" height="0.738"/>
			<rect x="7.746" y="23.021" clip-path="url(#SVGID_4_)" fill="#7D1E21" width="3.906" height="0.738"/>
			<rect x="7.746" y="22.283" clip-path="url(#SVGID_4_)" fill="#7E1E21" width="3.906" height="0.738"/>
			<rect x="7.746" y="21.544" clip-path="url(#SVGID_4_)" fill="#7F1E21" width="3.906" height="0.738"/>
			<rect x="7.746" y="20.806" clip-path="url(#SVGID_4_)" fill="#7F1F21" width="3.906" height="0.738"/>
			<rect x="7.746" y="20.068" clip-path="url(#SVGID_4_)" fill="#801F21" width="3.906" height="0.738"/>
			<rect x="7.746" y="19.33" clip-path="url(#SVGID_4_)" fill="#811F21" width="3.906" height="0.738"/>
			<rect x="7.746" y="18.592" clip-path="url(#SVGID_4_)" fill="#821F20" width="3.906" height="0.737"/>
			<rect x="7.746" y="17.853" clip-path="url(#SVGID_4_)" fill="#821F20" width="3.906" height="0.739"/>
			<rect x="7.746" y="17.115" clip-path="url(#SVGID_4_)" fill="#831F20" width="3.906" height="0.738"/>
			<rect x="7.746" y="16.376" clip-path="url(#SVGID_4_)" fill="#841F20" width="3.906" height="0.738"/>
			<rect x="7.746" y="15.639" clip-path="url(#SVGID_4_)" fill="#851F20" width="3.906" height="0.737"/>
			<rect x="7.746" y="14.9" clip-path="url(#SVGID_4_)" fill="#851F20" width="3.906" height="0.739"/>
			<rect x="7.746" y="14.162" clip-path="url(#SVGID_4_)" fill="#861F20" width="3.906" height="0.738"/>
			<rect x="7.746" y="13.424" clip-path="url(#SVGID_4_)" fill="#871F20" width="3.906" height="0.737"/>
			<rect x="7.746" y="12.686" clip-path="url(#SVGID_4_)" fill="#87201F" width="3.906" height="0.738"/>
			<rect x="7.746" y="11.948" clip-path="url(#SVGID_4_)" fill="#88201F" width="3.906" height="0.738"/>
			<rect x="7.746" y="7.743" clip-path="url(#SVGID_4_)" fill="#88201F" width="3.906" height="4.205"/>
		</g>
	</g>
	<g>
		<rect x="11.652" y="11.65" fill="#C23435" width="79.815" height="79.819"/>
	</g>
	<g>
		<path fill="#C23435" d="M28.988,72.859V67.91l0.849-0.086c4.077-0.408,6.026-1.288,8.641-3.902
			c3.048-3.049,5.089-6.869,8.47-15.854c2.237-5.945,4.091-9.554,6.996-13.618c2.535-3.546,6.553-6.42,11.052-7.905
			c2.216-0.732,5.231-1.269,7.127-1.269h0.728v9.908L72,35.258c-2.248,0.196-4.069,0.754-5.829,1.784
			c-2.341,1.371-5.215,4.889-6.832,8.36c-0.561,1.205-0.869,1.112,3.707,1.112h4.021v10.052L60.899,56.6l-6.169,0.032l-0.679,1.5
			c-1.739,3.845-3.769,7.465-5.756,10.271c-3.82,5.392-8.92,8.324-16.04,9.221c-0.795,0.101-1.855,0.183-2.356,0.184l-0.911,0.001
			L28.988,72.859L28.988,72.859z"/>
	</g>
	<g>
		<path fill="#7B1A1D" d="M28.992,71.834v-4.949L29.84,66.8c4.077-0.408,6.026-1.29,8.64-3.903c3.048-3.049,5.09-6.869,8.47-15.854
			c2.237-5.944,4.09-9.553,6.996-13.617c2.536-3.547,6.554-6.421,11.052-7.906c2.217-0.731,5.232-1.268,7.127-1.268h0.729v9.908
			l-0.85,0.074c-2.248,0.196-4.069,0.753-5.828,1.784c-2.342,1.37-5.215,4.888-6.832,8.36c-0.561,1.205-0.87,1.111,3.707,1.111
			h4.021v10.052l-6.17,0.032l-6.168,0.033l-0.68,1.5c-1.738,3.844-3.768,7.465-5.755,10.271c-3.82,5.394-8.92,8.325-16.039,9.222
			c-0.795,0.1-1.855,0.184-2.357,0.184l-0.911,0.001V71.834L28.992,71.834L28.992,71.834z"/>
	</g>
	<g>
		<path fill="#030104" d="M51.987,72.894h-0.622l-0.537-0.724h-0.236v0.724h-0.507v-1.976h0.855c0.116,0,0.217,0.008,0.301,0.021
			s0.163,0.042,0.236,0.086c0.074,0.044,0.133,0.102,0.177,0.172s0.065,0.159,0.065,0.265c0,0.146-0.033,0.265-0.102,0.357
			c-0.067,0.092-0.164,0.168-0.289,0.229L51.987,72.894z M51.192,71.524c0-0.05-0.011-0.092-0.03-0.127
			c-0.021-0.036-0.056-0.063-0.105-0.084c-0.038-0.015-0.078-0.023-0.12-0.025c-0.054-0.004-0.106-0.005-0.161-0.005h-0.184v0.532
			h0.156c0.081,0,0.149-0.004,0.205-0.013c0.055-0.008,0.1-0.026,0.137-0.055c0.036-0.026,0.062-0.057,0.078-0.091
			C51.184,71.625,51.192,71.58,51.192,71.524z"/>
	</g>
	<g>
		<linearGradient id="SVGID_5_" gradientUnits="userSpaceOnUse" x1="50.8716" y1="-17.3008" x2="50.8716" y2="-19.5428">
			<stop  offset="0" style="stop-color:#E8E7E6"/>
			<stop  offset="1" style="stop-color:#FFFFFF"/>
		</linearGradient>
		<path fill="url(#SVGID_5_)" d="M50.871,73.89c-1.095,0-1.987-0.892-1.987-1.987s0.892-1.987,1.987-1.987
			c1.096,0,1.988,0.892,1.988,1.987S51.966,73.89,50.871,73.89z M50.871,70.445c-0.803,0-1.457,0.654-1.457,1.458
			c0,0.805,0.654,1.458,1.457,1.458c0.805,0,1.459-0.653,1.459-1.458C52.33,71.099,51.675,70.445,50.871,70.445z"/>
	</g>
	<g>
		<g>
			<defs>
				<path id="SVGID_6_" d="M28.977,72.285v-4.95l0.849-0.084c4.077-0.409,6.026-1.29,8.64-3.903c3.048-3.049,5.09-6.869,8.47-15.854
					c2.237-5.944,4.091-9.554,6.996-13.617c2.535-3.547,6.553-6.422,11.053-7.906c2.216-0.731,5.231-1.269,7.127-1.269h0.727v9.909
					l-0.848,0.073c-2.248,0.196-4.07,0.754-5.83,1.785c-2.34,1.369-5.215,4.888-6.83,8.36c-0.562,1.204-0.871,1.111,3.705,1.111
					h4.022v10.052l-6.169,0.032l-6.17,0.032l-0.678,1.5c-1.74,3.845-3.77,7.466-5.756,10.271c-3.82,5.393-8.92,8.324-16.04,9.222
					c-0.795,0.1-1.855,0.183-2.356,0.183l-0.911,0.001V72.285L28.977,72.285L28.977,72.285z"/>
			</defs>
			<clipPath id="SVGID_7_">
				<use xlink:href="#SVGID_6_"  overflow="visible"/>
			</clipPath>
			<rect x="28.977" y="24.702" clip-path="url(#SVGID_7_)" fill="#E6E5E4" width="1.415" height="52.532"/>
			<rect x="30.392" y="24.702" clip-path="url(#SVGID_7_)" fill="#E7E6E5" width="1.415" height="52.532"/>
			<rect x="31.807" y="24.702" clip-path="url(#SVGID_7_)" fill="#E8E7E6" width="1.415" height="52.532"/>
			<rect x="33.222" y="24.702" clip-path="url(#SVGID_7_)" fill="#E9E8E7" width="1.415" height="52.532"/>
			<rect x="34.637" y="24.702" clip-path="url(#SVGID_7_)" fill="#EAE9E8" width="1.415" height="52.532"/>
			<rect x="36.051" y="24.702" clip-path="url(#SVGID_7_)" fill="#EAEAE9" width="1.415" height="52.532"/>
			<rect x="37.466" y="24.702" clip-path="url(#SVGID_7_)" fill="#EBEBEA" width="1.415" height="52.532"/>
			<rect x="38.881" y="24.702" clip-path="url(#SVGID_7_)" fill="#ECECEB" width="1.415" height="52.532"/>
			<rect x="40.296" y="24.702" clip-path="url(#SVGID_7_)" fill="#EDEDEC" width="1.415" height="52.532"/>
			<rect x="41.711" y="24.702" clip-path="url(#SVGID_7_)" fill="#EEEEED" width="1.415" height="52.532"/>
			<rect x="43.125" y="24.702" clip-path="url(#SVGID_7_)" fill="#EFEFEE" width="1.415" height="52.532"/>
			<rect x="44.541" y="24.702" clip-path="url(#SVGID_7_)" fill="#F0F0EF" width="1.415" height="52.532"/>
			<rect x="45.956" y="24.702" clip-path="url(#SVGID_7_)" fill="#F1F1F0" width="1.415" height="52.532"/>
			<rect x="47.37" y="24.702" clip-path="url(#SVGID_7_)" fill="#F2F2F1" width="1.415" height="52.532"/>
			<rect x="48.785" y="24.702" clip-path="url(#SVGID_7_)" fill="#F3F3F2" width="1.415" height="52.532"/>
			<rect x="50.2" y="24.702" clip-path="url(#SVGID_7_)" fill="#F4F4F3" width="1.415" height="52.532"/>
			<rect x="51.615" y="24.702" clip-path="url(#SVGID_7_)" fill="#F5F5F4" width="1.415" height="52.532"/>
			<rect x="53.03" y="24.702" clip-path="url(#SVGID_7_)" fill="#F6F6F5" width="1.415" height="52.532"/>
			<rect x="54.445" y="24.702" clip-path="url(#SVGID_7_)" fill="#F6F7F6" width="1.414" height="52.532"/>
			<rect x="55.859" y="24.702" clip-path="url(#SVGID_7_)" fill="#F7F7F7" width="1.416" height="52.532"/>
			<rect x="57.275" y="24.702" clip-path="url(#SVGID_7_)" fill="#F8F8F8" width="1.414" height="52.532"/>
			<rect x="58.689" y="24.702" clip-path="url(#SVGID_7_)" fill="#F9F9F9" width="1.415" height="52.532"/>
			<rect x="60.104" y="24.702" clip-path="url(#SVGID_7_)" fill="#FAFAFA" width="1.415" height="52.532"/>
			<rect x="61.519" y="24.702" clip-path="url(#SVGID_7_)" fill="#FBFBFA" width="1.415" height="52.532"/>
			<rect x="62.934" y="24.702" clip-path="url(#SVGID_7_)" fill="#FCFCFB" width="1.415" height="52.532"/>
			<rect x="64.349" y="24.702" clip-path="url(#SVGID_7_)" fill="#FCFDFC" width="1.414" height="52.532"/>
			<rect x="65.763" y="24.702" clip-path="url(#SVGID_7_)" fill="#FDFDFD" width="1.416" height="52.532"/>
			<rect x="67.179" y="24.702" clip-path="url(#SVGID_7_)" fill="#FEFEFE" width="1.414" height="52.532"/>
			<rect x="68.593" y="24.702" clip-path="url(#SVGID_7_)" fill="#FEFEFE" width="1.415" height="52.532"/>
			<rect x="70.008" y="24.702" clip-path="url(#SVGID_7_)" fill="#FFFFFF" width="1.415" height="52.532"/>
			<rect x="71.423" y="24.702" clip-path="url(#SVGID_7_)" fill="#FFFFFF" width="1.414" height="52.532"/>
			<path clip-path="url(#SVGID_7_)" fill="#FFFFFF" d="M72.837,77.234V24.702V77.234z"/>
		</g>
	</g>
</g>
</svg>
