<?xml version="1.0" encoding="utf-8"?>
<!-- Generator: Adobe Illustrator 15.0.0, SVG Export Plug-In . SVG Version: 6.00 Build 0)  -->
<!DOCTYPE svg PUBLIC "-//W3C//DTD SVG 1.1//EN" "http://www.w3.org/Graphics/SVG/1.1/DTD/svg11.dtd">
<svg version="1.1" id="Capa_1" xmlns="http://www.w3.org/2000/svg" xmlns:xlink="http://www.w3.org/1999/xlink" x="0px" y="0px"
	 width="99.212px" height="99.212px" viewBox="0 0 99.212 99.212" enable-background="new 0 0 99.212 99.212" xml:space="preserve">
<g>
	
		<radialGradient id="SVGID_1_" cx="-260.0962" cy="-207.1904" r="0.0284" gradientTransform="matrix(2291.6716 0 0 -2218.7549 596089.8125 -459678.9688)" gradientUnits="userSpaceOnUse">
		<stop  offset="0" style="stop-color:#423324;stop-opacity:0.98"/>
		<stop  offset="1" style="stop-color:#1C110F"/>
	</radialGradient>
	<path fill="url(#SVGID_1_)" d="M6.9,8.065h85.413v83.082H6.9V8.065z"/>
	<path fill="#D17736" d="M10.55,11.616h78.112v75.98H10.55V11.616z M7,91.147h85.212V8.065H7V91.147z M62.815,37.676
		c0-0.284,0.105-0.426,0.426-0.426h5.574c0.283,0,0.426,0.105,0.426,0.426V65.69c0,0.283-0.071,0.426-0.426,0.426h-5.504
		c-0.354,0-0.461-0.177-0.461-0.461V37.676H62.815L62.815,37.676z M62.423,29.617c0-2.272,1.599-3.621,3.622-3.621
		c2.166,0,3.621,1.455,3.621,3.621c0,2.343-1.526,3.621-3.691,3.621C63.915,33.239,62.423,31.959,62.423,29.617z M46.447,49.358
		c-0.995-3.941-3.338-12.534-4.226-16.688H42.15c-0.745,4.153-2.627,11.184-4.118,16.688H46.447z M36.576,55.109l-2.805,10.652
		c-0.071,0.284-0.178,0.354-0.532,0.354h-5.22c-0.355,0-0.426-0.106-0.355-0.532l10.084-35.292c0.178-0.64,0.284-1.208,0.354-2.947
		c0-0.248,0.107-0.354,0.284-0.354h7.456c0.249,0,0.355,0.07,0.427,0.354l11.29,38.31c0.071,0.284,0,0.462-0.283,0.462h-5.895
		c-0.283,0-0.462-0.07-0.532-0.319l-2.912-10.688H36.576L36.576,55.109z"/>
</g>
</svg>
