<?xml version="1.0" encoding="utf-8"?>
<!-- Generator: Adobe Illustrator 15.0.0, SVG Export Plug-In . SVG Version: 6.00 Build 0)  -->
<!DOCTYPE svg PUBLIC "-//W3C//DTD SVG 1.1//EN" "http://www.w3.org/Graphics/SVG/1.1/DTD/svg11.dtd">
<svg version="1.1" id="Capa_1" xmlns="http://www.w3.org/2000/svg" xmlns:xlink="http://www.w3.org/1999/xlink" x="0px" y="0px"
	 width="99.212px" height="99.212px" viewBox="0 0 99.212 99.212" enable-background="new 0 0 99.212 99.212" xml:space="preserve">
<g>
	
		<radialGradient id="SVGID_1_" cx="-260.0957" cy="-207.1914" r="0.026" gradientTransform="matrix(2291.6716 0 0 -2218.7549 596089.8125 -459678.9688)" gradientUnits="userSpaceOnUse">
		<stop  offset="0" style="stop-color:#34354D;stop-opacity:0.98"/>
		<stop  offset="1" style="stop-color:#0D0C23"/>
	</radialGradient>
	<path fill="url(#SVGID_1_)" d="M10.55,11.615h78.112v75.981H10.55V11.615z"/>
	<path fill="#42A6CC" d="M10.55,11.615h78.112v75.981H10.55V11.615z M7,91.147h85.212V8.065H7V91.147z M64.448,42.15
		c-2.805,0-3.764,1.421-3.764,2.592c0,1.278,0.639,2.166,4.402,4.118c5.574,2.699,7.314,5.291,7.314,9.09
		c0,5.681-4.332,8.734-10.189,8.734c-3.09,0-5.752-0.64-7.279-1.527c-0.248-0.105-0.284-0.284-0.284-0.567v-5.22
		c0-0.355,0.178-0.461,0.427-0.284c2.236,1.456,4.793,2.095,7.137,2.095c2.805,0,3.977-1.172,3.977-2.77
		c0-1.278-0.817-2.414-4.403-4.26c-5.042-2.415-7.137-4.864-7.137-8.947c0-4.58,3.587-8.379,9.8-8.379
		c3.053,0,5.184,0.461,6.355,0.993c0.283,0.178,0.355,0.462,0.355,0.71v4.864c0,0.284-0.178,0.462-0.533,0.355
		C69.063,42.753,66.755,42.15,64.448,42.15L64.448,42.15z M33.913,46.375c0.817,0.071,1.456,0.071,2.876,0.071
		c4.154,0,8.06-1.455,8.06-7.102c0-4.509-2.805-6.781-7.526-6.781c-1.421,0-2.77,0.071-3.409,0.107V46.375z M27.593,27.522
		c0-0.248,0.497-0.427,0.781-0.427c2.272-0.106,5.646-0.177,9.16-0.177c9.835,0,13.669,5.396,13.669,12.285
		c0,9.018-6.532,12.888-14.557,12.888c-1.35,0-1.811-0.071-2.77-0.071v13.635c0,0.283-0.106,0.426-0.426,0.426h-5.433
		c-0.284,0-0.426-0.106-0.426-0.426V27.522L27.593,27.522z"/>
</g>
</svg>
