<?xml version="1.0" encoding="utf-8"?>
<!-- Generator: Adobe Illustrator 15.0.0, SVG Export Plug-In . SVG Version: 6.00 Build 0)  -->
<!DOCTYPE svg PUBLIC "-//W3C//DTD SVG 1.1//EN" "http://www.w3.org/Graphics/SVG/1.1/DTD/svg11.dtd">
<svg version="1.1" id="Capa_1" xmlns="http://www.w3.org/2000/svg" xmlns:xlink="http://www.w3.org/1999/xlink" x="0px" y="0px"
	 width="99.211px" height="99.211px" viewBox="0 0 99.211 99.211" enable-background="new 0 0 99.211 99.211" xml:space="preserve">
<g>
	
		<linearGradient id="SVGID_1_" gradientUnits="userSpaceOnUse" x1="271.7778" y1="-190.2876" x2="364.3149" y2="-190.2876" gradientTransform="matrix(1 0 0 -1 -268.4395 -136.6533)">
		<stop  offset="0" style="stop-color:#BCBEC0"/>
		<stop  offset="0.1701" style="stop-color:#939598"/>
		<stop  offset="0.8171" style="stop-color:#939598"/>
		<stop  offset="1" style="stop-color:#BCBEC0"/>
	</linearGradient>
	<path fill="url(#SVGID_1_)" d="M95.866,85.059L90.67,21.518c-0.027-0.339-0.146-0.664-0.337-0.957
		c-0.19-0.294-0.453-0.558-0.769-0.779c-0.315-0.222-0.684-0.4-1.086-0.524c-0.403-0.124-0.84-0.192-1.293-0.192h-75.16
		c-0.454,0-0.891,0.068-1.293,0.192c-0.402,0.124-0.771,0.302-1.086,0.524c-0.315,0.221-0.578,0.485-0.769,0.779
		c-0.19,0.293-0.309,0.618-0.337,0.957L3.347,85.059c-0.036,0.432,0.035,0.845,0.193,1.22c0.158,0.376,0.404,0.716,0.719,1
		c0.315,0.286,0.699,0.517,1.133,0.677c0.435,0.16,0.92,0.248,1.436,0.248h85.557c0.516,0,1-0.088,1.436-0.248
		c0.435-0.16,0.817-0.391,1.133-0.677c0.315-0.284,0.561-0.624,0.72-1C95.831,85.903,95.902,85.491,95.866,85.059z"/>
	<path fill="#E4E4E4" d="M95.866,82.664L90.67,19.121c-0.027-0.339-0.146-0.663-0.337-0.957c-0.19-0.294-0.453-0.558-0.769-0.779
		c-0.315-0.221-0.684-0.4-1.086-0.524c-0.403-0.124-0.84-0.192-1.293-0.192h-75.16c-0.454,0-0.891,0.068-1.293,0.192
		c-0.402,0.124-0.771,0.303-1.086,0.524c-0.315,0.222-0.578,0.485-0.769,0.779c-0.19,0.294-0.309,0.618-0.337,0.957L3.346,82.664
		c-0.036,0.432,0.035,0.844,0.193,1.219c0.158,0.376,0.404,0.715,0.719,1c0.315,0.286,0.699,0.517,1.134,0.677
		s0.919,0.249,1.436,0.249h85.557c0.516,0,1.001-0.089,1.436-0.249s0.818-0.391,1.134-0.677c0.314-0.285,0.561-0.624,0.72-1
		C95.831,83.507,95.902,83.095,95.866,82.664z"/>
	
		<linearGradient id="SVGID_2_" gradientUnits="userSpaceOnUse" x1="277.4712" y1="-209.4946" x2="358.6216" y2="-209.4946" gradientTransform="matrix(1 0 0 -1 -268.4395 -136.6533)">
		<stop  offset="0" style="stop-color:#58595B"/>
		<stop  offset="0.1947" style="stop-color:#000000"/>
		<stop  offset="0.8534" style="stop-color:#000000"/>
		<stop  offset="1" style="stop-color:#58595B"/>
	</linearGradient>
	<path fill="url(#SVGID_2_)" d="M90.169,66.905c-0.026,0.413-0.118,0.81-0.273,1.181c-0.222,0.526-0.563,1.001-1.001,1.401
		c-0.438,0.4-0.974,0.724-1.577,0.948c-0.604,0.226-1.278,0.35-1.994,0.35h-71.44c-0.715,0-1.388-0.124-1.992-0.35
		c-0.603-0.225-1.137-0.548-1.575-0.948c-0.438-0.399-0.78-0.875-1.001-1.401c-0.22-0.525-0.32-1.102-0.273-1.705l0.053-0.686
		c-0.039,0.411-0.062,0.652-0.064,0.686l0.011,9.203c-0.046,0.604,0.053,1.181,0.273,1.705c0.221,0.526,0.563,1.001,1.001,1.401
		c0.438,0.4,0.972,0.725,1.575,0.949c0.604,0.224,1.276,0.349,1.992,0.349h71.44c0.716,0,1.39-0.125,1.994-0.349
		c0.604-0.225,1.139-0.549,1.577-0.949c0.438-0.399,0.779-0.875,1.001-1.401c0.221-0.524,0.32-1.102,0.273-1.705V66.905z"/>
	
		<linearGradient id="SVGID_3_" gradientUnits="userSpaceOnUse" x1="318.0454" y1="-208.6792" x2="318.0454" y2="-142.7202" gradientTransform="matrix(1 0 0 -1 -268.4395 -136.6533)">
		<stop  offset="0" style="stop-color:#414042"/>
		<stop  offset="1" style="stop-color:#6D6E71"/>
	</linearGradient>
	<path fill="url(#SVGID_3_)" d="M90.169,66.499L86,13.925c-0.038-0.472-0.201-0.92-0.467-1.328
		c-0.265-0.406-0.629-0.772-1.068-1.079c-0.438-0.306-0.95-0.553-1.511-0.725c-0.561-0.17-1.17-0.265-1.803-0.265H18.058
		c-0.632,0-1.241,0.095-1.801,0.265c-0.561,0.171-1.072,0.418-1.51,0.725c-0.438,0.307-0.803,0.672-1.068,1.079
		c-0.264,0.407-0.429,0.856-0.466,1.328l-4.17,52.574c-0.046,0.587,0.053,1.147,0.273,1.66c0.221,0.512,0.563,0.975,1.001,1.362
		c0.438,0.39,0.972,0.705,1.575,0.924c0.604,0.219,1.276,0.34,1.991,0.34h71.44c0.716,0,1.39-0.121,1.994-0.34
		c0.604-0.218,1.139-0.534,1.577-0.924c0.438-0.388,0.779-0.851,1.001-1.362C90.117,67.646,90.215,67.086,90.169,66.499z"/>
	<g opacity="0.4">
		<path fill="#FFFFFF" d="M9.042,66.499c0,0,0,0.084,0,0.247c-0.006,0.163,0.018,0.404,0.08,0.71
			c0.065,0.309,0.197,0.667,0.426,1.063c0.236,0.381,0.58,0.78,1.045,1.125c0.916,0.722,2.351,1.053,3.959,0.973
			c0.818-0.018,1.69-0.036,2.608-0.055c0.918-0.001,1.884-0.001,2.891-0.001c8.06,0,18.807,0,29.553,0s21.494,0,29.553,0
			c1.008,0.003,1.974-0.013,2.892,0.004c0.918,0.02,1.789,0.037,2.607,0.055c1.62,0.078,3.043-0.255,3.961-0.976
			c0.463-0.344,0.811-0.745,1.045-1.126c0.225-0.39,0.361-0.759,0.425-1.063c0.063-0.306,0.086-0.548,0.079-0.71
			c0-0.163,0-0.247,0-0.247s0.004,0.084,0.01,0.246c0.013,0.163,0,0.405-0.05,0.719c-0.054,0.314-0.173,0.687-0.389,1.098
			c-0.229,0.405-0.562,0.826-1.027,1.203c-0.921,0.791-2.409,1.197-4.054,1.184c-0.818,0.018-1.69,0.035-2.608,0.055
			c-0.918,0.016-1.883,0-2.891,0.004c-8.061,0-18.808,0-29.554,0c-10.747,0-21.494,0-29.554,0c-1.007-0.001-1.973-0.001-2.891-0.001
			c-0.918-0.02-1.79-0.038-2.608-0.055c-0.205-0.005-0.406-0.009-0.604-0.014c-0.2-0.01-0.404-0.038-0.6-0.057
			c-0.195-0.023-0.392-0.036-0.575-0.069c-0.178-0.051-0.351-0.101-0.521-0.149c-0.705-0.176-1.29-0.527-1.755-0.896
			c-0.463-0.376-0.8-0.8-1.028-1.205c-0.211-0.403-0.335-0.787-0.386-1.097c-0.05-0.313-0.063-0.557-0.05-0.719
			C9.04,66.583,9.042,66.499,9.042,66.499z"/>
	</g>
	<g>
		<g>
			<g>
				<path fill="#F89832" d="M60.33,41.419c-0.83-1.201-1.984-2.122-3.309-2.849c-1.322-0.725-2.815-1.256-4.329-1.678
					c-1.512-0.42-3.044-0.732-4.446-1.017c-1.19-0.242-2.222-0.463-3.1-0.684c-0.877-0.221-1.602-0.441-2.178-0.682
					c-0.575-0.24-1.001-0.501-1.283-0.802c-0.282-0.301-0.418-0.643-0.416-1.044c0.004-0.533,0.225-0.981,0.6-1.351
					c0.376-0.371,0.905-0.664,1.527-0.891c0.622-0.227,1.336-0.387,2.081-0.491c0.744-0.104,1.519-0.15,2.262-0.15
					c0.596,0,1.189,0.021,1.779,0.061c0.59,0.041,1.175,0.102,1.756,0.184s1.157,0.184,1.728,0.305
					c0.57,0.122,1.136,0.264,1.693,0.426c0.091,0.029,0.19,0.06,0.3,0.09s0.227,0.06,0.351,0.085
					c0.124,0.025,0.254,0.047,0.391,0.063c0.135,0.015,0.276,0.025,0.42,0.025c0.603,0,1.146-0.11,1.622-0.298
					c0.476-0.189,0.884-0.458,1.217-0.777c0.332-0.319,0.587-0.688,0.758-1.079c0.172-0.39,0.258-0.802,0.252-1.205
					c-0.007-0.372-0.074-0.724-0.197-1.051c-0.124-0.326-0.304-0.627-0.533-0.897s-0.509-0.509-0.834-0.71
					c-0.324-0.202-0.693-0.367-1.102-0.489c-0.756-0.233-1.534-0.437-2.335-0.613c-0.799-0.175-1.621-0.321-2.462-0.438
					c-0.841-0.117-1.702-0.205-2.582-0.264c-0.881-0.059-1.78-0.088-2.697-0.088c-1.706,0-3.445,0.19-5.097,0.58
					c-1.653,0.39-3.218,0.98-4.575,1.782c-1.36,0.803-2.512,1.818-3.331,3.058c-0.822,1.243-1.311,2.712-1.34,4.42
					c-0.03,1.729,0.436,3.137,1.244,4.296c0.81,1.163,1.962,2.073,3.299,2.806c1.339,0.734,2.863,1.289,4.414,1.738
					c1.553,0.451,3.13,0.796,4.576,1.114c0.834,0.183,1.677,0.366,2.471,0.561s1.541,0.399,2.182,0.623
					c0.644,0.224,1.182,0.466,1.561,0.736s0.598,0.567,0.601,0.9c0.001,0.227,0.003,0.529-0.094,0.855
					c-0.099,0.328-0.298,0.68-0.698,1.004c-0.401,0.323-1.003,0.619-1.909,0.834c-0.907,0.215-2.117,0.349-3.73,0.349
					c-0.773,0-1.536-0.032-2.29-0.099c-0.753-0.065-1.495-0.164-2.226-0.296c-0.731-0.131-1.449-0.296-2.156-0.492
					c-0.706-0.196-1.399-0.425-2.08-0.687c-0.141-0.052-0.281-0.096-0.421-0.134s-0.283-0.07-0.425-0.096
					c-0.143-0.025-0.287-0.044-0.433-0.058c-0.146-0.012-0.293-0.018-0.443-0.018c-0.565,0-1.1,0.096-1.586,0.271
					c-0.487,0.175-0.923,0.43-1.292,0.745c-0.368,0.316-0.667,0.694-0.876,1.117c-0.209,0.425-0.329,0.893-0.337,1.389
					c-0.006,0.36,0.055,0.717,0.175,1.059c0.12,0.342,0.298,0.667,0.524,0.964c0.226,0.298,0.5,0.566,0.813,0.793
					c0.312,0.228,0.662,0.413,1.04,0.545c0.964,0.362,1.949,0.681,2.953,0.954c1.005,0.273,2.028,0.502,3.068,0.686
					c1.041,0.184,2.098,0.321,3.17,0.413c1.073,0.091,2.16,0.138,3.26,0.138c2.151,0,4.138-0.26,5.907-0.742
					c1.768-0.481,3.315-1.185,4.589-2.071c1.271-0.884,2.271-1.951,2.944-3.162c0.672-1.208,1.02-2.559,0.994-4.014
					C61.674,44.112,61.164,42.625,60.33,41.419z"/>
			</g>
		</g>
		<g>
			<path fill="#583712" d="M57.021,38.571c-1.322-0.725-2.815-1.256-4.329-1.678c-1.512-0.42-3.044-0.732-4.446-1.017
				c-1.19-0.242-2.222-0.463-3.1-0.684c-0.877-0.221-1.602-0.441-2.178-0.682c-0.575-0.24-1.001-0.501-1.283-0.802
				c-0.216-0.23-0.345-0.486-0.394-0.772c-0.008,0.068-0.022,0.133-0.022,0.204c-0.002,0.402,0.134,0.743,0.416,1.043
				c0.282,0.301,0.708,0.562,1.283,0.802c0.576,0.24,1.3,0.46,2.178,0.681c0.878,0.221,1.91,0.442,3.1,0.685
				c1.402,0.284,2.935,0.596,4.446,1.017c1.514,0.421,3.007,0.954,4.329,1.678c1.324,0.727,2.479,1.647,3.309,2.849
				c0.818,1.182,1.322,2.638,1.372,4.447c0.004-0.123,0.008-0.247,0.006-0.371c-0.033-1.859-0.544-3.347-1.378-4.552
				C59.5,40.219,58.345,39.297,57.021,38.571z"/>
			<path fill="#583712" d="M34.261,29.005c0.82-1.239,1.971-2.254,3.331-3.058c1.357-0.801,2.923-1.392,4.575-1.782
				c1.651-0.39,3.391-0.58,5.096-0.58c0.917,0,1.816,0.029,2.697,0.088c0.88,0.059,1.741,0.146,2.582,0.264
				c0.841,0.117,1.663,0.263,2.462,0.438c0.801,0.175,1.579,0.379,2.335,0.612c0.408,0.122,0.777,0.287,1.102,0.489
				s0.604,0.441,0.834,0.71c0.229,0.271,0.409,0.571,0.533,0.897c0.105,0.281,0.161,0.583,0.181,0.897
				c0.012-0.107,0.018-0.215,0.017-0.323c-0.007-0.372-0.074-0.724-0.197-1.051c-0.124-0.326-0.304-0.627-0.533-0.897
				s-0.509-0.509-0.834-0.71c-0.324-0.202-0.693-0.367-1.102-0.489c-0.756-0.233-1.534-0.437-2.335-0.613
				c-0.799-0.175-1.621-0.321-2.462-0.438c-0.841-0.117-1.702-0.205-2.582-0.264c-0.881-0.059-1.78-0.088-2.697-0.088
				c-1.706,0-3.445,0.19-5.096,0.58c-1.653,0.39-3.218,0.98-4.575,1.782c-1.36,0.803-2.512,1.818-3.331,3.058
				c-0.822,1.243-1.311,2.712-1.34,4.42c-0.002,0.12,0.004,0.234,0.007,0.351C32.978,31.646,33.459,30.217,34.261,29.005z"/>
			<path fill="#583712" d="M32.608,49.496c0.209-0.423,0.508-0.801,0.876-1.117c0.368-0.315,0.805-0.57,1.292-0.745
				c0.486-0.175,1.021-0.271,1.586-0.271c0.15,0,0.298,0.006,0.443,0.019c0.146,0.014,0.29,0.031,0.433,0.058
				c0.143,0.024,0.285,0.057,0.425,0.095c0.141,0.039,0.281,0.083,0.421,0.135c0.68,0.262,1.374,0.49,2.08,0.687
				c0.707,0.196,1.425,0.36,2.156,0.491c0.73,0.132,1.473,0.231,2.226,0.297c0.753,0.066,1.517,0.099,2.29,0.099
				c1.614,0,2.824-0.134,3.73-0.349c0.906-0.215,1.508-0.512,1.909-0.835c0.4-0.323,0.6-0.675,0.698-1.002
				c0.098-0.327,0.095-0.63,0.094-0.855c0-0.023-0.01-0.045-0.012-0.069c-0.012,0.141-0.036,0.293-0.082,0.449
				c-0.099,0.328-0.298,0.679-0.698,1.002c-0.401,0.324-1.003,0.62-1.909,0.835c-0.907,0.215-2.117,0.349-3.73,0.349
				c-0.773,0-1.536-0.033-2.29-0.099c-0.753-0.066-1.495-0.165-2.226-0.296c-0.731-0.131-1.449-0.296-2.156-0.492
				c-0.706-0.196-1.399-0.426-2.08-0.687c-0.14-0.052-0.28-0.096-0.421-0.134c-0.141-0.039-0.283-0.07-0.425-0.096
				c-0.143-0.026-0.287-0.044-0.433-0.058c-0.146-0.012-0.293-0.018-0.443-0.018c-0.565,0-1.1,0.096-1.586,0.271
				c-0.487,0.175-0.923,0.429-1.292,0.745c-0.368,0.316-0.667,0.694-0.876,1.117c-0.209,0.424-0.329,0.893-0.337,1.389
				c-0.001,0.079,0.013,0.157,0.018,0.236C32.325,50.238,32.433,49.85,32.608,49.496z"/>
		</g>
		<g>
			<path fill="#FECD87" d="M58.995,29.469c-0.333,0.319-0.741,0.588-1.217,0.777c-0.477,0.189-1.02,0.298-1.622,0.298
				c-0.144,0-0.285-0.009-0.42-0.025c-0.137-0.016-0.268-0.038-0.391-0.063c-0.125-0.025-0.241-0.055-0.351-0.085
				c-0.108-0.03-0.209-0.062-0.3-0.09c-0.558-0.162-1.123-0.304-1.693-0.426c-0.57-0.123-1.146-0.224-1.728-0.305
				c-0.581-0.082-1.166-0.143-1.756-0.184c-0.589-0.041-1.183-0.061-1.779-0.061c-0.744,0-1.519,0.047-2.262,0.151
				c-0.745,0.104-1.459,0.264-2.081,0.491c-0.622,0.227-1.152,0.521-1.527,0.891c-0.375,0.37-0.596,0.817-0.6,1.351
				c0,0.094,0.008,0.184,0.022,0.272c0.053-0.443,0.252-0.826,0.578-1.147c0.376-0.371,0.905-0.664,1.527-0.891
				c0.622-0.227,1.336-0.387,2.081-0.491c0.744-0.104,1.519-0.151,2.262-0.151c0.596,0,1.189,0.021,1.779,0.062
				c0.589,0.041,1.175,0.102,1.756,0.183c0.581,0.082,1.157,0.184,1.728,0.305c0.57,0.122,1.136,0.264,1.693,0.426
				c0.091,0.029,0.19,0.06,0.3,0.09s0.227,0.06,0.351,0.085s0.254,0.047,0.391,0.063c0.135,0.015,0.276,0.025,0.42,0.025
				c0.603,0,1.146-0.11,1.622-0.298c0.476-0.189,0.884-0.458,1.217-0.777c0.332-0.319,0.587-0.688,0.758-1.079
				c0.172-0.39,0.258-0.802,0.252-1.205c-0.001-0.053-0.013-0.101-0.017-0.152c-0.03,0.297-0.109,0.595-0.235,0.882
				C59.583,28.78,59.327,29.15,58.995,29.469z"/>
			<path fill="#FECD87" d="M60.713,49.509c-0.674,1.211-1.673,2.277-2.944,3.162c-1.274,0.887-2.821,1.59-4.589,2.071
				c-1.769,0.482-3.756,0.741-5.907,0.741c-1.1,0-2.188-0.046-3.26-0.138c-1.072-0.092-2.129-0.229-3.17-0.413
				c-1.041-0.183-2.063-0.41-3.068-0.685c-1.004-0.274-1.989-0.592-2.953-0.955c-0.377-0.132-0.728-0.317-1.04-0.544
				c-0.313-0.227-0.586-0.496-0.813-0.793s-0.404-0.623-0.524-0.965c-0.093-0.266-0.139-0.542-0.157-0.822
				c-0.007,0.079-0.016,0.159-0.018,0.24c-0.006,0.359,0.055,0.717,0.175,1.059c0.12,0.341,0.298,0.666,0.524,0.964
				c0.226,0.297,0.5,0.565,0.813,0.793c0.312,0.228,0.662,0.413,1.04,0.543c0.964,0.364,1.949,0.683,2.953,0.956
				c1.005,0.273,2.028,0.502,3.068,0.685c1.041,0.184,2.098,0.321,3.17,0.413c1.073,0.092,2.16,0.138,3.26,0.138
				c2.151,0,4.138-0.259,5.907-0.741c1.768-0.482,3.315-1.185,4.589-2.071c1.271-0.885,2.271-1.951,2.944-3.163
				c0.672-1.207,1.02-2.558,0.994-4.013c0-0.036-0.005-0.068-0.006-0.104C61.667,47.181,61.328,48.406,60.713,49.509z"/>
			<path fill="#FECD87" d="M37.463,40.052c1.339,0.734,2.863,1.289,4.414,1.738c1.553,0.451,3.13,0.796,4.576,1.114
				c0.834,0.183,1.677,0.366,2.471,0.561s1.541,0.399,2.182,0.623c0.644,0.224,1.182,0.466,1.561,0.736
				c0.353,0.251,0.558,0.527,0.588,0.832c0.013-0.151,0.013-0.289,0.012-0.406c-0.002-0.334-0.222-0.631-0.6-0.901
				c-0.38-0.27-0.918-0.513-1.561-0.736s-1.388-0.429-2.183-0.623s-1.637-0.379-2.471-0.561c-1.446-0.317-3.024-0.663-4.576-1.113
				c-1.55-0.45-3.074-1.005-4.414-1.739c-1.337-0.732-2.489-1.643-3.299-2.806c-0.751-1.079-1.202-2.377-1.237-3.945
				c-0.001,0.042-0.006,0.082-0.007,0.125c-0.03,1.729,0.436,3.137,1.244,4.296C34.973,38.408,36.126,39.319,37.463,40.052z"/>
		</g>
	</g>
	<g opacity="0.3">
		
			<linearGradient id="SVGID_4_" gradientUnits="userSpaceOnUse" x1="318.0454" y1="-147.6592" x2="318.0454" y2="-178.5813" gradientTransform="matrix(1 0 0 -1 -268.4395 -136.6533)">
			<stop  offset="0" style="stop-color:#FFFFFF"/>
			<stop  offset="1" style="stop-color:#FFFFFF;stop-opacity:0.5"/>
		</linearGradient>
		<path fill="url(#SVGID_4_)" d="M86,13.925c-0.038-0.472-0.201-0.92-0.467-1.327c-0.265-0.407-0.629-0.772-1.068-1.079
			c-0.438-0.306-0.95-0.553-1.511-0.725c-0.561-0.17-1.17-0.265-1.803-0.265H18.058c-0.632,0-1.241,0.094-1.801,0.265
			c-0.561,0.171-1.072,0.418-1.51,0.725c-0.438,0.307-0.803,0.672-1.068,1.079c-0.264,0.407-0.429,0.855-0.466,1.327l-2.12,26.732
			H88.12L86,13.925z"/>
	</g>
</g>
</svg>
