<?xml version="1.0" encoding="utf-8"?>
<!-- Generator: Adobe Illustrator 15.0.0, SVG Export Plug-In . SVG Version: 6.00 Build 0)  -->
<!DOCTYPE svg PUBLIC "-//W3C//DTD SVG 1.1//EN" "http://www.w3.org/Graphics/SVG/1.1/DTD/svg11.dtd">
<svg version="1.1" id="Capa_1" xmlns="http://www.w3.org/2000/svg" xmlns:xlink="http://www.w3.org/1999/xlink" x="0px" y="0px"
	 width="99.211px" height="99.211px" viewBox="0 0 99.211 99.211" enable-background="new 0 0 99.211 99.211" xml:space="preserve">
<g>
	
		<linearGradient id="SVGID_1_" gradientUnits="userSpaceOnUse" x1="545.3789" y1="566.6777" x2="627.5928" y2="566.6777" gradientTransform="matrix(1 0 0 1 -536.8789 -513.5186)">
		<stop  offset="0" style="stop-color:#BCBEC0"/>
		<stop  offset="0.1701" style="stop-color:#939598"/>
		<stop  offset="0.8171" style="stop-color:#939598"/>
		<stop  offset="1" style="stop-color:#BCBEC0"/>
	</linearGradient>
	<path fill="url(#SVGID_1_)" d="M90.705,81.076l-4.616-56.451c-0.024-0.301-0.131-0.59-0.3-0.85
		c-0.169-0.261-0.402-0.496-0.683-0.692c-0.28-0.197-0.608-0.355-0.965-0.466c-0.358-0.11-0.746-0.17-1.148-0.17H16.218
		c-0.403,0-0.792,0.061-1.149,0.17c-0.357,0.11-0.685,0.269-0.965,0.466c-0.28,0.196-0.514,0.431-0.683,0.692
		c-0.169,0.26-0.274,0.549-0.299,0.85L8.508,81.076c-0.032,0.385,0.031,0.752,0.171,1.085c0.14,0.333,0.358,0.636,0.638,0.889
		c0.28,0.253,0.622,0.459,1.007,0.601c0.387,0.143,0.817,0.221,1.276,0.221h76.012c0.458,0,0.889-0.078,1.275-0.221
		c0.387-0.142,0.727-0.348,1.007-0.601s0.499-0.556,0.64-0.889C90.674,81.826,90.737,81.461,90.705,81.076z"/>
	<path fill="#E4E4E4" d="M90.705,78.949l-4.616-56.454c-0.024-0.301-0.131-0.589-0.3-0.851s-0.402-0.496-0.683-0.692
		c-0.28-0.196-0.608-0.355-0.965-0.465c-0.358-0.11-0.746-0.17-1.148-0.17H16.218c-0.403,0-0.792,0.06-1.149,0.17
		s-0.685,0.27-0.965,0.465c-0.28,0.198-0.514,0.431-0.683,0.692c-0.169,0.261-0.274,0.549-0.299,0.851L8.507,78.949
		c-0.032,0.384,0.031,0.75,0.171,1.083c0.14,0.334,0.358,0.635,0.639,0.888c0.28,0.255,0.621,0.46,1.007,0.603
		c0.387,0.143,0.816,0.221,1.276,0.221h76.012c0.458,0,0.89-0.078,1.275-0.221c0.387-0.143,0.727-0.348,1.008-0.603
		c0.279-0.253,0.498-0.554,0.64-0.888C90.674,79.698,90.737,79.333,90.705,78.949z"/>
	
		<linearGradient id="SVGID_2_" gradientUnits="userSpaceOnUse" x1="550.4375" y1="583.7412" x2="622.5332" y2="583.7412" gradientTransform="matrix(1 0 0 1 -536.8789 -513.5186)">
		<stop  offset="0" style="stop-color:#58595B"/>
		<stop  offset="0.1947" style="stop-color:#000000"/>
		<stop  offset="0.8534" style="stop-color:#000000"/>
		<stop  offset="1" style="stop-color:#58595B"/>
	</linearGradient>
	<path fill="url(#SVGID_2_)" d="M85.644,64.947c-0.023,0.368-0.105,0.721-0.242,1.05c-0.197,0.467-0.501,0.89-0.89,1.244
		c-0.389,0.356-0.865,0.645-1.4,0.844c-0.537,0.2-1.136,0.311-1.772,0.311h-63.47c-0.635,0-1.233-0.11-1.77-0.311
		c-0.536-0.2-1.01-0.487-1.399-0.844c-0.389-0.354-0.693-0.777-0.889-1.244c-0.195-0.467-0.284-0.979-0.243-1.515l0.047-0.609
		c-0.035,0.365-0.055,0.58-0.057,0.609l0.01,8.177c-0.041,0.536,0.047,1.05,0.243,1.515c0.196,0.467,0.5,0.89,0.889,1.244
		c0.389,0.355,0.864,0.645,1.399,0.844c0.537,0.199,1.134,0.311,1.77,0.311h63.47c0.637,0,1.235-0.111,1.772-0.311
		c0.536-0.2,1.012-0.488,1.4-0.844c0.389-0.354,0.692-0.777,0.89-1.244c0.196-0.465,0.284-0.979,0.242-1.515V64.947z"/>
	
		<linearGradient id="SVGID_3_" gradientUnits="userSpaceOnUse" x1="586.4844" y1="583.0166" x2="586.4844" y2="524.4164" gradientTransform="matrix(1 0 0 1 -536.8789 -513.5186)">
		<stop  offset="0" style="stop-color:#414042"/>
		<stop  offset="1" style="stop-color:#6D6E71"/>
	</linearGradient>
	<path fill="url(#SVGID_3_)" d="M85.644,64.588l-3.704-46.709c-0.033-0.419-0.179-0.817-0.414-1.18
		c-0.236-0.361-0.56-0.686-0.949-0.958c-0.389-0.272-0.844-0.492-1.343-0.645c-0.499-0.151-1.039-0.235-1.603-0.235H21.578
		c-0.562,0-1.103,0.084-1.6,0.235c-0.499,0.152-0.952,0.372-1.341,0.645s-0.714,0.597-0.949,0.958
		c-0.235,0.361-0.381,0.761-0.415,1.18l-3.705,46.709c-0.041,0.521,0.047,1.02,0.243,1.475c0.196,0.455,0.5,0.866,0.889,1.21
		c0.389,0.347,0.864,0.627,1.399,0.821c0.537,0.194,1.134,0.302,1.769,0.302h63.47c0.637,0,1.235-0.107,1.771-0.302
		c0.537-0.194,1.013-0.475,1.402-0.821c0.389-0.345,0.691-0.756,0.888-1.21C85.598,65.607,85.685,65.109,85.644,64.588z"/>
	<g opacity="0.4">
		<path fill="#FFFFFF" d="M13.567,64.588c0,0,0,0.074,0,0.219c-0.005,0.146,0.016,0.359,0.071,0.631
			c0.058,0.275,0.175,0.593,0.378,0.945c0.21,0.338,0.515,0.692,0.928,0.999c0.814,0.642,2.089,0.936,3.518,0.864
			c0.727-0.016,1.501-0.032,2.317-0.049c0.816-0.001,1.674-0.001,2.568-0.001c7.161,0,16.709,0,26.256,0c9.547,0,19.096,0,26.256,0
			c0.896,0.003,1.754-0.012,2.569,0.003c0.815,0.019,1.589,0.033,2.316,0.05c1.438,0.069,2.703-0.227,3.519-0.867
			c0.411-0.306,0.721-0.662,0.929-1.001c0.199-0.346,0.321-0.674,0.377-0.944c0.057-0.272,0.077-0.486,0.07-0.63
			c0-0.146,0-0.22,0-0.22s0.004,0.074,0.009,0.219c0.013,0.145,0,0.358-0.044,0.639c-0.048,0.279-0.153,0.61-0.347,0.975
			c-0.202,0.36-0.498,0.734-0.911,1.069c-0.818,0.702-2.141,1.063-3.602,1.052c-0.728,0.016-1.502,0.03-2.317,0.049
			c-0.815,0.015-1.673,0-2.568,0.004c-7.162,0-16.709,0-26.257,0c-9.548,0-19.096,0-26.257,0c-0.894-0.001-1.752-0.001-2.568-0.001
			c-0.816-0.018-1.59-0.034-2.317-0.049c-0.182-0.005-0.36-0.009-0.537-0.012c-0.177-0.01-0.359-0.035-0.533-0.052
			c-0.173-0.02-0.348-0.032-0.511-0.062c-0.158-0.045-0.312-0.089-0.463-0.132c-0.626-0.156-1.146-0.469-1.559-0.797
			c-0.412-0.333-0.711-0.71-0.914-1.07c-0.187-0.357-0.297-0.699-0.343-0.975c-0.044-0.278-0.056-0.494-0.044-0.638
			C13.566,64.662,13.567,64.588,13.567,64.588z"/>
	</g>
	<g>
		<g>
			<g>
				<path fill="#F89832" d="M59.134,42.306c-0.737-1.067-1.763-1.885-2.939-2.531c-1.175-0.644-2.501-1.116-3.847-1.491
					c-1.344-0.373-2.705-0.65-3.95-0.904c-1.057-0.215-1.974-0.411-2.754-0.607c-0.779-0.196-1.423-0.392-1.935-0.606
					c-0.511-0.213-0.889-0.445-1.14-0.712c-0.251-0.267-0.372-0.571-0.37-0.928c0.003-0.474,0.2-0.871,0.533-1.2
					c0.334-0.33,0.804-0.59,1.356-0.792s1.187-0.344,1.849-0.436c0.661-0.092,1.35-0.134,2.01-0.134
					c0.529,0,1.057,0.019,1.581,0.054c0.523,0.037,1.044,0.091,1.56,0.164c0.517,0.073,1.028,0.164,1.535,0.271
					c0.507,0.109,1.01,0.234,1.505,0.378c0.08,0.026,0.168,0.053,0.266,0.081c0.099,0.026,0.202,0.053,0.312,0.075
					c0.111,0.022,0.226,0.042,0.348,0.056c0.12,0.013,0.246,0.022,0.374,0.022c0.535,0,1.018-0.098,1.44-0.265
					c0.423-0.168,0.785-0.407,1.081-0.69c0.295-0.283,0.521-0.611,0.674-0.958c0.152-0.347,0.229-0.713,0.224-1.071
					c-0.006-0.331-0.066-0.643-0.176-0.934c-0.109-0.29-0.27-0.557-0.474-0.797c-0.203-0.24-0.451-0.452-0.74-0.631
					c-0.287-0.18-0.615-0.326-0.979-0.434c-0.671-0.208-1.361-0.389-2.074-0.545c-0.709-0.155-1.44-0.285-2.188-0.389
					c-0.746-0.104-1.512-0.182-2.293-0.234c-0.783-0.053-1.581-0.079-2.396-0.079c-1.516,0-3.061,0.169-4.528,0.516
					c-1.469,0.346-2.859,0.871-4.065,1.583c-1.208,0.713-2.231,1.615-2.959,2.717c-0.73,1.104-1.165,2.41-1.191,3.927
					c-0.026,1.536,0.388,2.787,1.105,3.816c0.72,1.033,1.743,1.842,2.931,2.493c1.19,0.652,2.544,1.146,3.922,1.544
					c1.38,0.401,2.781,0.707,4.065,0.99c0.741,0.163,1.49,0.325,2.195,0.498c0.706,0.174,1.369,0.355,1.938,0.554
					c0.572,0.199,1.051,0.414,1.387,0.654c0.337,0.239,0.531,0.503,0.534,0.799c0,0.202,0.002,0.47-0.084,0.76
					c-0.087,0.292-0.265,0.604-0.62,0.892c-0.355,0.288-0.89,0.55-1.695,0.741c-0.806,0.191-1.881,0.31-3.314,0.31
					c-0.687,0-1.365-0.029-2.035-0.088c-0.669-0.058-1.328-0.146-1.978-0.263c-0.649-0.116-1.287-0.263-1.915-0.437
					c-0.627-0.174-1.243-0.377-1.848-0.61c-0.125-0.046-0.25-0.085-0.374-0.119c-0.125-0.034-0.251-0.063-0.377-0.085
					c-0.127-0.022-0.255-0.039-0.385-0.051c-0.129-0.011-0.26-0.016-0.394-0.016c-0.502,0-0.977,0.085-1.409,0.241
					c-0.433,0.155-0.82,0.381-1.148,0.662c-0.327,0.28-0.592,0.617-0.778,0.992c-0.186,0.377-0.292,0.793-0.299,1.234
					c-0.005,0.319,0.049,0.637,0.155,0.94c0.107,0.304,0.265,0.593,0.466,0.857c0.2,0.264,0.444,0.502,0.722,0.704
					c0.277,0.202,0.588,0.366,0.924,0.484c0.856,0.321,1.731,0.604,2.624,0.847c0.893,0.243,1.802,0.446,2.726,0.61
					c0.925,0.163,1.863,0.285,2.816,0.366c0.953,0.081,1.919,0.123,2.896,0.123c1.912,0,3.676-0.231,5.249-0.66
					c1.57-0.428,2.945-1.052,4.076-1.84c1.13-0.784,2.019-1.733,2.616-2.809c0.598-1.073,0.906-2.274,0.883-3.566
					C60.327,44.698,59.875,43.377,59.134,42.306z"/>
			</g>
		</g>
		<g>
			<path fill="#583712" d="M56.194,39.775c-1.175-0.644-2.501-1.116-3.847-1.491c-1.344-0.373-2.705-0.65-3.95-0.904
				c-1.057-0.215-1.974-0.411-2.754-0.607c-0.779-0.196-1.423-0.392-1.935-0.606c-0.511-0.213-0.889-0.445-1.14-0.712
				c-0.192-0.205-0.307-0.432-0.35-0.686c-0.007,0.061-0.02,0.118-0.02,0.181c-0.002,0.357,0.119,0.66,0.37,0.927
				c0.25,0.267,0.629,0.5,1.14,0.712c0.512,0.213,1.155,0.409,1.935,0.605c0.78,0.197,1.697,0.393,2.754,0.609
				c1.245,0.252,2.608,0.529,3.95,0.903c1.346,0.374,2.672,0.847,3.847,1.491c1.177,0.646,2.202,1.463,2.939,2.531
				c0.727,1.05,1.175,2.344,1.219,3.951c0.004-0.109,0.007-0.219,0.005-0.329c-0.029-1.652-0.482-2.974-1.224-4.044
				C58.396,41.239,57.371,40.42,56.194,39.775z"/>
			<path fill="#583712" d="M35.973,31.276c0.729-1.101,1.751-2.002,2.959-2.717c1.206-0.711,2.597-1.236,4.065-1.583
				c1.467-0.347,3.013-0.515,4.527-0.515c0.815,0,1.613,0.026,2.396,0.078c0.782,0.052,1.547,0.129,2.294,0.234
				c0.747,0.104,1.478,0.234,2.187,0.389c0.712,0.155,1.403,0.337,2.075,0.543c0.362,0.108,0.69,0.255,0.979,0.435
				c0.288,0.179,0.536,0.392,0.74,0.63c0.203,0.241,0.363,0.507,0.474,0.797c0.094,0.25,0.143,0.518,0.16,0.797
				c0.011-0.095,0.017-0.191,0.016-0.287c-0.006-0.331-0.066-0.643-0.176-0.934c-0.109-0.29-0.27-0.557-0.474-0.797
				c-0.203-0.24-0.451-0.452-0.74-0.63c-0.287-0.18-0.615-0.327-0.979-0.435c-0.671-0.207-1.361-0.388-2.074-0.544
				c-0.709-0.155-1.44-0.285-2.188-0.389c-0.746-0.104-1.512-0.182-2.293-0.234c-0.783-0.053-1.581-0.078-2.396-0.078
				c-1.516,0-3.061,0.168-4.527,0.515c-1.469,0.347-2.859,0.871-4.065,1.583c-1.208,0.714-2.231,1.616-2.959,2.717
				c-0.73,1.104-1.165,2.41-1.191,3.927c-0.001,0.106,0.003,0.208,0.006,0.312C34.833,33.623,35.26,32.353,35.973,31.276z"/>
			<path fill="#583712" d="M34.504,49.481c0.186-0.375,0.452-0.712,0.778-0.992c0.327-0.28,0.715-0.506,1.148-0.662
				c0.432-0.155,0.907-0.241,1.409-0.241c0.134,0,0.265,0.005,0.394,0.017c0.13,0.013,0.258,0.028,0.384,0.052
				c0.127,0.021,0.253,0.051,0.378,0.084c0.125,0.035,0.25,0.074,0.374,0.12c0.604,0.233,1.221,0.436,1.848,0.61
				c0.628,0.174,1.266,0.319,1.916,0.436c0.648,0.117,1.309,0.206,1.978,0.264c0.669,0.059,1.348,0.088,2.035,0.088
				c1.434,0,2.509-0.119,3.314-0.31c0.806-0.191,1.34-0.455,1.695-0.742c0.356-0.287,0.534-0.6,0.621-0.89s0.084-0.56,0.084-0.759
				c0-0.021-0.01-0.04-0.012-0.062c-0.01,0.125-0.032,0.261-0.072,0.399c-0.088,0.292-0.265,0.604-0.621,0.89
				c-0.355,0.288-0.89,0.551-1.695,0.742s-1.881,0.31-3.314,0.31c-0.687,0-1.365-0.029-2.035-0.088
				c-0.669-0.059-1.328-0.146-1.978-0.263s-1.287-0.263-1.916-0.438c-0.627-0.174-1.243-0.378-1.848-0.61
				c-0.125-0.046-0.249-0.085-0.374-0.119c-0.125-0.035-0.251-0.062-0.378-0.085c-0.126-0.023-0.254-0.039-0.384-0.051
				c-0.13-0.011-0.26-0.016-0.394-0.016c-0.502,0-0.977,0.085-1.409,0.241c-0.433,0.155-0.82,0.381-1.148,0.662
				c-0.327,0.281-0.593,0.617-0.778,0.993c-0.186,0.376-0.292,0.793-0.299,1.234c-0.001,0.07,0.012,0.14,0.016,0.209
				C34.253,50.141,34.349,49.796,34.504,49.481z"/>
		</g>
		<g>
			<path fill="#FECD87" d="M57.947,31.688c-0.296,0.284-0.658,0.523-1.082,0.691c-0.423,0.167-0.905,0.265-1.439,0.265
				c-0.129,0-0.254-0.008-0.373-0.022c-0.122-0.014-0.239-0.034-0.348-0.056c-0.11-0.022-0.215-0.049-0.313-0.076
				c-0.095-0.027-0.186-0.055-0.267-0.08c-0.495-0.144-0.998-0.271-1.504-0.379c-0.506-0.109-1.018-0.199-1.534-0.271
				c-0.518-0.073-1.037-0.127-1.561-0.163c-0.523-0.037-1.051-0.054-1.581-0.054c-0.661,0-1.349,0.042-2.009,0.134
				c-0.662,0.092-1.296,0.235-1.849,0.436c-0.553,0.202-1.023,0.463-1.356,0.792c-0.333,0.329-0.53,0.726-0.533,1.201
				c0,0.083,0.007,0.164,0.02,0.242c0.047-0.394,0.224-0.734,0.514-1.019c0.334-0.33,0.804-0.59,1.356-0.792
				s1.187-0.343,1.849-0.436c0.661-0.092,1.35-0.134,2.009-0.134c0.53,0,1.057,0.018,1.581,0.055
				c0.523,0.036,1.043,0.09,1.561,0.163c0.515,0.073,1.026,0.164,1.534,0.271c0.506,0.108,1.009,0.235,1.504,0.378
				c0.081,0.026,0.169,0.053,0.267,0.08c0.098,0.026,0.202,0.054,0.313,0.076c0.109,0.022,0.226,0.042,0.348,0.056
				c0.119,0.013,0.244,0.022,0.373,0.022c0.535,0,1.019-0.098,1.439-0.265c0.424-0.168,0.786-0.407,1.082-0.691
				c0.295-0.283,0.521-0.611,0.674-0.958c0.152-0.347,0.229-0.713,0.224-1.071c-0.001-0.047-0.012-0.09-0.015-0.135
				c-0.027,0.264-0.098,0.529-0.209,0.784C58.47,31.077,58.242,31.405,57.947,31.688z"/>
			<path fill="#FECD87" d="M59.474,49.493c-0.599,1.077-1.486,2.024-2.615,2.809c-1.132,0.789-2.507,1.413-4.077,1.841
				c-1.571,0.429-3.337,0.657-5.248,0.657c-0.978,0-1.944-0.04-2.896-0.121c-0.953-0.083-1.892-0.204-2.817-0.368
				c-0.924-0.162-1.833-0.364-2.726-0.608c-0.892-0.243-1.767-0.526-2.624-0.849c-0.335-0.116-0.646-0.281-0.923-0.482
				c-0.278-0.201-0.521-0.441-0.723-0.705s-0.359-0.554-0.466-0.857c-0.083-0.235-0.123-0.481-0.139-0.73
				c-0.006,0.07-0.014,0.141-0.016,0.213c-0.005,0.319,0.049,0.637,0.155,0.94c0.107,0.304,0.265,0.592,0.466,0.857
				c0.201,0.264,0.444,0.501,0.723,0.704c0.277,0.202,0.587,0.366,0.923,0.482c0.857,0.323,1.732,0.606,2.624,0.849
				c0.893,0.243,1.802,0.446,2.726,0.609c0.925,0.163,1.864,0.284,2.817,0.366c0.953,0.082,1.918,0.123,2.896,0.123
				c1.911,0,3.677-0.23,5.248-0.659c1.57-0.428,2.945-1.052,4.077-1.84c1.129-0.786,2.018-1.733,2.615-2.81
				c0.597-1.072,0.906-2.273,0.884-3.565c0-0.032-0.005-0.061-0.006-0.093C60.321,47.425,60.021,48.513,59.474,49.493z"/>
			<path fill="#FECD87" d="M38.818,41.091c1.19,0.652,2.543,1.146,3.921,1.544c1.38,0.401,2.781,0.707,4.065,0.99
				c0.741,0.163,1.49,0.325,2.195,0.498c0.705,0.174,1.369,0.354,1.938,0.554c0.572,0.199,1.051,0.414,1.387,0.654
				c0.313,0.223,0.496,0.468,0.522,0.739c0.012-0.135,0.012-0.257,0.012-0.361c-0.002-0.296-0.198-0.56-0.534-0.8
				c-0.337-0.24-0.815-0.456-1.387-0.654s-1.233-0.381-1.939-0.553c-0.706-0.173-1.454-0.337-2.195-0.499
				c-1.285-0.282-2.687-0.589-4.066-0.989c-1.377-0.399-2.73-0.893-3.921-1.544c-1.188-0.65-2.211-1.46-2.931-2.493
				c-0.667-0.959-1.068-2.112-1.1-3.505c-0.001,0.038-0.005,0.073-0.006,0.111c-0.026,1.536,0.387,2.787,1.105,3.816
				C36.605,39.631,37.63,40.44,38.818,41.091z"/>
		</g>
	</g>
	<g opacity="0.3">
		
			<linearGradient id="SVGID_4_" gradientUnits="userSpaceOnUse" x1="586.4863" y1="528.8037" x2="586.4863" y2="556.276" gradientTransform="matrix(1 0 0 1 -536.8789 -513.5186)">
			<stop  offset="0" style="stop-color:#FFFFFF"/>
			<stop  offset="1" style="stop-color:#FFFFFF;stop-opacity:0.5"/>
		</linearGradient>
		<path fill="url(#SVGID_4_)" d="M81.939,17.879c-0.033-0.419-0.179-0.817-0.414-1.179c-0.236-0.362-0.56-0.686-0.949-0.958
			c-0.389-0.272-0.844-0.492-1.343-0.645c-0.499-0.151-1.039-0.235-1.603-0.235H21.578c-0.562,0-1.103,0.083-1.6,0.235
			c-0.499,0.152-0.952,0.372-1.341,0.645c-0.389,0.272-0.714,0.597-0.949,0.958c-0.235,0.361-0.381,0.76-0.415,1.179l-1.883,23.75
			h68.434L81.939,17.879z"/>
	</g>
</g>
</svg>
