<?xml version="1.0" encoding="utf-8"?>
<!-- Generator: Adobe Illustrator 15.0.0, SVG Export Plug-In . SVG Version: 6.00 Build 0)  -->
<!DOCTYPE svg PUBLIC "-//W3C//DTD SVG 1.1//EN" "http://www.w3.org/Graphics/SVG/1.1/DTD/svg11.dtd">
<svg version="1.1"
	 id="svg2" xmlns:svg="http://www.w3.org/2000/svg" xmlns:sodipodi="http://sodipodi.sourceforge.net/DTD/sodipodi-0.dtd" xmlns:cc="http://creativecommons.org/ns#" xmlns:dc="http://purl.org/dc/elements/1.1/" xmlns:inkscape="http://www.inkscape.org/namespaces/inkscape" xmlns:rdf="http://www.w3.org/1999/02/22-rdf-syntax-ns#" inkscape:version="0.48.1 r9760" sodipodi:docname="twitter_bootstrap_logo.svg"
	 xmlns="http://www.w3.org/2000/svg" xmlns:xlink="http://www.w3.org/1999/xlink" x="0px" y="0px" width="2000px"
	 height="2008.275px" viewBox="0 0 2000 2008.275" enable-background="new 0 0 2000 2008.275" xml:space="preserve">
<sodipodi:namedview  id="namedview2996" showgrid="false" borderopacity="1" inkscape:cy="407.66551" bordercolor="#666666" inkscape:cx="116.80866" pagecolor="#ffffff" objecttolerance="10" gridtolerance="10" fit-margin-top="0" fit-margin-left="0" inkscape:zoom="0.24896372" guidetolerance="10" fit-margin-bottom="0" fit-margin-right="0" inkscape:window-height="623" inkscape:window-width="864" inkscape:pageshadow="2" inkscape:pageopacity="0" inkscape:window-maximized="0" inkscape:current-layer="svg2" inkscape:window-y="0" inkscape:window-x="0">
	</sodipodi:namedview>
<g id="layer1" transform="matrix(15.623041,0,0,15.623041,-3987.6024,-6644.8835)">
	<path id="rect3050" fill="#594080" d="M284.576,438.168h69.342c9.139,0,16.548,7.409,16.548,16.548v69.766
		c0,9.139-7.409,16.548-16.548,16.548h-69.342c-9.139,0-16.548-7.409-16.548-16.548v-69.766
		C268.028,445.577,275.437,438.168,284.576,438.168z"/>
	<g id="text3836" transform="scale(1.0052013,0.99482561)">
		<path id="path3841" inkscape:connector-curvature="0" fill="#FFFFFF" d="M318.364,484.959c2.602,0,4.576-0.572,5.92-1.716
			c1.344-1.144,2.016-2.831,2.016-5.062c0-2.202-0.672-3.875-2.016-5.019c-1.344-1.173-3.318-1.759-5.92-1.759h-9.138v13.556
			L318.364,484.959 M318.922,512.973c3.318,0,5.806-0.701,7.464-2.102c1.687-1.401,2.531-3.518,2.531-6.349
			c0-2.774-0.829-4.848-2.488-6.22c-1.659-1.401-4.161-2.102-7.507-2.102h-9.695v16.774H318.922 M334.28,489.936
			c3.546,1.03,6.292,2.931,8.237,5.706c1.945,2.774,2.917,6.178,2.917,10.21c0,6.178-2.088,10.782-6.263,13.814
			c-4.176,3.032-10.525,4.547-19.047,4.547H292.71v-64.049h24.796c8.894,0,15.329,1.344,19.305,4.033
			c4.004,2.688,6.006,6.993,6.006,12.913c0,3.117-0.729,5.777-2.188,7.979C339.171,487.262,337.054,488.877,334.28,489.936"/>
	</g>
</g>
<head  xmlns=""></head>
</svg>
