<?xml version="1.0" encoding="utf-8"?>
<!-- Generator: Adobe Illustrator 15.0.0, SVG Export Plug-In . SVG Version: 6.00 Build 0)  -->
<!DOCTYPE svg PUBLIC "-//W3C//DTD SVG 1.1//EN" "http://www.w3.org/Graphics/SVG/1.1/DTD/svg11.dtd">
<svg version="1.1" xmlns="http://www.w3.org/2000/svg" xmlns:xlink="http://www.w3.org/1999/xlink" x="0px" y="0px" width="520px"
	 height="512px" viewBox="0 0 520 512" enable-background="new 0 0 520 512" xml:space="preserve">
<g id="Layer_5">
</g>
<g id="Layer_4">
	<path fill="#62E3FF" d="M391,425.75c0,24.991-57.464,45.25-129.583,45.25s-130.583-20.259-130.583-45.25
		s58.464-45.25,130.583-45.25S391,400.759,391,425.75z"/>
	<g>
		<path fill="#43AFFF" d="M285.25,470.248c0-8.688,0-17.477,0-23.854c0-15.334,10.75-20,10.75-25.667c0-9.75-19.621,0.926-25.667,7
			c-9.208,9.251-8.167,12.874-7.945,28.378c0.058,4.012,0.074,9.303,0.068,14.896C270.247,470.979,277.862,470.723,285.25,470.248z"
			/>
		<path fill="#43AFFF" d="M225.371,469.258c-0.049-13.169-0.121-30.934-0.121-37.905c0-13.375-19-21-28.125-21
			c-4.624,0-10.375,0.238-10.375,2.682c0,6.193,17.375,9.818,17.375,22.693c0,7.091-0.101,21.271-0.175,30.668
			C210.777,467.558,217.937,468.52,225.371,469.258z"/>
		<path fill="#43AFFF" d="M314.417,435.227c0.167-12.167,18-18.001,17.333-21.917s-14.927-3.277-21.586-0.956
			c-18.886,6.583-16.997,22.29-16.997,22.29l-0.508,35.05c7.653-0.655,15.032-1.544,22.067-2.646
			C314.637,445.694,314.33,441.585,314.417,435.227z"/>
		<path fill="#43AFFF" d="M252.699,435.104c-7.574-16.752-30.449-22.502-30.449-14.877c0,5.125,4.625,3.5,7.75,15
			c1.261,4.641,1.944,19.893,2.314,34.647c7.822,0.617,15.913,0.989,24.2,1.095C256.324,456.392,255.419,441.16,252.699,435.104z"/>
	</g>
	<path fill="#62E3FF" d="M112.334,310.084c-8.053,0-0.037-12.646,0-18.333C112.471,297.594,120.387,310.084,112.334,310.084z"/>
</g>
<g id="mainBody">
	<g id="XMLID_1_">
		<g>
			<path fill="#FFC09F" d="M310.67,168.5c40.27,0,50.5,28.5,50.5,50.5c0,29.99-15.09,51.73-52.64,57.35
				c-4.61,0.69-9.56,1.141-14.86,1.33c-22.67,0.82-45.33,0.71-64-0.01c-2.71-0.1-5.37-0.27-7.98-0.5
				c-39.19-3.43-67.02-21.15-67.02-60.84c0-15.03,10.16-47.83,51.16-47.83c4.06,0,30.57,2.5,56.17,2.5
				C284.73,171,307.72,168.5,310.67,168.5z"/>
			<path d="M490.61,234.02c0.81,0.16,1.35,0.94,1.2,1.75c-0.13,0.72-0.77,1.23-1.47,1.23c-0.09,0-0.19-0.01-0.28-0.02
				c-20.45-3.78-50.21-7.94-101.03-7.47c-0.89,2.95-1.89,5.76-2.98,8.44c17.3,0.58,64.81,2.43,103.55,14.28
				c0.8,0.24,1.24,1.08,1,1.88c-0.2,0.64-0.79,1.06-1.43,1.06c-0.15,0-0.3-0.02-0.44-0.07c-39.28-12.01-87.82-13.66-103.96-14.19
				c-12.52,27.49-36.75,39.63-74.82,45.34l-1.42-9.9c37.55-5.619,52.64-27.359,52.64-57.35c0-22-10.23-50.5-50.5-50.5
				c-2.95,0-25.94,2.5-48.67,2.5c-25.6,0-52.11-2.5-56.17-2.5c-41,0-51.16,32.8-51.16,47.83c0,39.689,27.83,57.41,67.02,60.84
				l-1.09,10.95c-46.59-4.72-74.29-21.11-88.72-47.31c-49.54,1.19-77.66,8.22-98.27,13.37c-1.5,0.38-2.96,0.74-4.38,1.1
				c-0.12,0.03-0.24,0.04-0.36,0.04c-0.68,0-1.29-0.46-1.46-1.14c-0.2-0.8,0.3-1.62,1.1-1.82c1.42-0.35,2.88-0.71,4.37-1.09
				c20.55-5.13,48.49-12.12,97.44-13.42c-1.35-2.71-2.57-5.51-3.66-8.4c-19.04-0.16-77.71,2.54-97.8,7.51
				c-0.12,0.03-0.24,0.04-0.36,0.04c-0.67,0-1.29-0.46-1.46-1.14c-0.19-0.8,0.3-1.62,1.1-1.82c19.91-4.92,77.16-7.65,97.44-7.6
				c-4.56-13.42-6.58-28.79-6.58-45.96c0-30.48,9.5-41.98,22.25-58.23c-9.75-34.75,3.5-58.5,3.5-58.5s20.5-4.25,59.25,23.5
				c21-9,77-9.75,103.5-2c16.25-10.75,46-26,58-21.73c3.25,5.23,10.25,20.48,4.25,53.98c4.07,7.35,25.25,23,25.33,67.25
				c-0.34,16.32-2.04,30.1-5.19,41.75C440.42,226.08,470.14,230.25,490.61,234.02z"/>
			<path d="M314.42,385.75c0.16,12.17,18,18,17.33,21.92c-0.67,3.91-14.93,3.28-21.59,0.95c-18.88-6.58-16.99-22.29-16.99-22.29
				l-0.63-43.12c0,0,1.29-23.21-7.29-23.21c0,4.67,0,53.89,0,70.58c0,15.34,10.75,20,10.75,25.67c0,9.75-19.62-0.92-25.67-7
				c-9.21-9.25-8.16-28.87-7.94-44.38c0.21-14.98-0.14-47.75-0.14-47.75l-6.25,0.13c0,0,2.56,71.58-3.3,84.62
				c-7.58,16.75-30.45,22.51-30.45,14.88c0-5.13,5.63-3.5,8.75-15c2.66-9.78,1.75-82.75,1.75-82.75s-7.33,4.33-7.33,18
				c0,6.25-0.17,41.99-0.17,52.62c0,13.38-19,21-28.13,21c-4.62,0-10.37-0.23-10.37-2.68c0-6.19,17.37-9.82,17.37-22.69
				c0-11.16-0.24-39.87-0.24-39.87s-8.76,1.5-21.26,1.5c-31.5,0-41.46-20.1-46.2-31.35c-6.17-14.65-14.17-21.53-22.67-27.03
				c-5.22-3.38-6.42-7.36-0.38-8.5c27.88-5.25,35.01,31.62,53.63,37.5c13.29,4.19,30.38,2.38,38.88-3.12
				c1.12-11.26,9.24-21,16-26.13c-0.43-0.04-0.86-0.08-1.28-0.13l1.09-10.95c2.61,0.23,5.27,0.4,7.98,0.5
				c18.67,0.72,41.33,0.83,64,0.01c5.3-0.189,10.25-0.64,14.86-1.33l1.42,9.9c-4.66,0.7-9.54,1.31-14.62,1.83
				c15.09,9.5,19.42,21.42,19.42,53.67S314.32,378.33,314.42,385.75z"/>
		</g>
		<g>
		</g>
	</g>
</g>
<g id="Layer_6">
	<path fill="#FFFFFF" d="M223.667,218.75c0-17.627-9.588-31.917-21.417-31.917s-21.417,14.29-21.417,31.917
		s9.588,29.917,21.417,29.917S223.667,236.377,223.667,218.75z"/>
	<path fill="#FFFFFF" d="M339.417,218.75c0-17.627-9.588-31.917-21.417-31.917s-21.417,14.29-21.417,31.917
		s9.588,29.917,21.417,29.917S339.417,236.377,339.417,218.75z"/>
	<g>
		<path fill="#B1423A" d="M258.583,267.834c-7.655,0-13.25-6.577-13.25-10c0-0.828,0.671-1.5,1.5-1.5s1.5,0.672,1.5,1.5
			c0,1.692,4.253,7,10.25,7c5.199,0,9.083-3.695,9.083-7c0-0.828,0.671-1.5,1.5-1.5s1.5,0.672,1.5,1.5
			C270.667,262.563,265.704,267.834,258.583,267.834z"/>
	</g>
	<circle fill="#B1423A" cx="258.417" cy="245.417" r="5.167"/>
	<ellipse fill="#B1423A" cx="202.25" cy="218.75" rx="14.083" ry="20.667"/>
	<ellipse fill="#B1423A" cx="318" cy="218.75" rx="14.083" ry="20.667"/>
</g>
<g id="Suckers">
	<ellipse fill="#B0F5DF" cx="122.5" cy="283.792" rx="3.375" ry="2.25"/>
	<ellipse fill="#B0F5DF" cx="133" cy="289.501" rx="3.375" ry="2.25"/>
	<ellipse fill="#B0F5DF" cx="139.417" cy="297.126" rx="3.375" ry="2.25"/>
	<ellipse fill="#B0F5DF" cx="145.042" cy="305.751" rx="3.375" ry="2.25"/>
	<ellipse fill="#B0F5DF" cx="151.458" cy="313.876" rx="3.375" ry="2.25"/>
	<ellipse fill="#B0F5DF" cx="160.125" cy="320.793" rx="3.375" ry="2.25"/>
	<ellipse fill="#B0F5DF" cx="172.25" cy="325.293" rx="3.375" ry="2.25"/>
	<ellipse fill="#B0F5DF" cx="184.417" cy="325.293" rx="3.375" ry="2.25"/>
	<ellipse fill="#B0F5DF" cx="196.625" cy="323.376" rx="3.375" ry="2.25"/>
</g>
</svg>
