<?xml version="1.0" encoding="utf-8"?>
<!-- Generator: Adobe Illustrator 15.0.0, SVG Export Plug-In . SVG Version: 6.00 Build 0)  -->
<!DOCTYPE svg PUBLIC "-//W3C//DTD SVG 1.1//EN" "http://www.w3.org/Graphics/SVG/1.1/DTD/svg11.dtd">
<svg version="1.1" id="Capa_1" xmlns="http://www.w3.org/2000/svg" xmlns:xlink="http://www.w3.org/1999/xlink" x="0px" y="0px"
	 width="70.25px" height="72.25px" viewBox="0 0 70.25 72.25" enable-background="new 0 0 70.25 72.25" xml:space="preserve">
<g>
	<g>
		<path fill="#FF1A41" d="M61.758,53.837c3.654-5.223,5.799-11.579,5.799-18.436c0-15.6-11.094-28.608-25.821-31.569L61.758,53.837z
			"/>
	</g>
	<g>
		<path fill="#FCB21D" d="M28.291,3.977C13.903,7.197,3.15,20.042,3.15,35.401c0,6.826,2.127,13.154,5.748,18.363L28.291,3.977z"/>
	</g>
	<g>
		<path fill="#1D74FF" d="M47.065,49.555H23.052l-4.779,13.148c4.952,3.104,10.806,4.9,17.081,4.9
			c6.169,0,11.932-1.735,16.827-4.742L47.065,49.555z"/>
	</g>
	<polygon fill="#272727" points="43.173,39.432 34.895,17.138 26.779,39.432 	"/>
	<g>
		<polygon fill="#E6B62E" points="18.463,63.731 4.447,63.731 8.935,52.275 9.427,52.469 5.224,63.201 18.093,63.201 18.322,62.566 
			18.821,62.747 		"/>
	</g>
	<g>
		<polygon fill="#C02B3F" points="66.291,63.731 51.947,63.731 51.53,62.645 52.024,62.455 52.312,63.201 65.509,63.201 
			61.567,53.359 62.06,53.162 		"/>
	</g>
	<g>
		<polygon fill="#3C5DA1" points="18.463,63.731 4.447,63.731 4.654,63.201 18.093,63.201 18.322,62.566 18.821,62.747 		"/>
	</g>
	<g>
		<polygon fill="#3C5DA1" points="66.291,63.731 51.947,63.731 51.53,62.645 52.024,62.455 52.312,63.201 66.084,63.201 		"/>
	</g>
</g>
</svg>
