<?xml version="1.0" encoding="utf-8"?>
<!-- Generator: Adobe Illustrator 15.0.0, SVG Export Plug-In . SVG Version: 6.00 Build 0)  -->
<!DOCTYPE svg PUBLIC "-//W3C//DTD SVG 1.1//EN" "http://www.w3.org/Graphics/SVG/1.1/DTD/svg11.dtd">
<svg version="1.1"
	 id="svg2" inkscape:version="0.48.1 r9760" sodipodi:docname="twitter_bootstrap_logo.svg" xmlns:svg="http://www.w3.org/2000/svg" xmlns:sodipodi="http://sodipodi.sourceforge.net/DTD/sodipodi-0.dtd" xmlns:cc="http://creativecommons.org/ns#" xmlns:dc="http://purl.org/dc/elements/1.1/" xmlns:inkscape="http://www.inkscape.org/namespaces/inkscape" xmlns:rdf="http://www.w3.org/1999/02/22-rdf-syntax-ns#"
	 xmlns="http://www.w3.org/2000/svg" xmlns:xlink="http://www.w3.org/1999/xlink" x="0px" y="0px" width="2000px"
	 height="2008.275px" viewBox="0 0 2000 2008.275" enable-background="new 0 0 2000 2008.275" xml:space="preserve">
<sodipodi:namedview  id="namedview2996" inkscape:window-maximized="0" inkscape:window-x="0" inkscape:window-y="0" inkscape:current-layer="svg2" inkscape:pageopacity="0" inkscape:pageshadow="2" inkscape:window-width="864" inkscape:window-height="623" fit-margin-right="0" fit-margin-bottom="0" pagecolor="#ffffff" inkscape:cx="116.80866" guidetolerance="10" bordercolor="#666666" inkscape:zoom="0.24896372" inkscape:cy="407.66551" fit-margin-left="0" fit-margin-top="0" borderopacity="1" gridtolerance="10" showgrid="false" objecttolerance="10">
	</sodipodi:namedview>
<head  xmlns=""></head>
<path fill="#317698" d="M976.883,217.548h57.495c174.391,0,343.975,70.907,508.777,212.708
	c162.896,166.731,244.338,357.41,244.338,572.036c0,243.379-102.524,451.293-307.574,623.766
	c-149.473,107.308-309.48,160.967-480.035,160.967c-224.214,0-420.64-89.101-589.278-267.314
	c-128.396-159.062-192.59-320.998-192.59-485.801v-57.495c0-195.461,80.483-377.522,241.456-546.159
	c3.835,0,23.959-17.248,60.365-51.742C671.227,271.207,823.576,217.548,976.883,217.548z"/>
<path fill="#FFFFFF" d="M255.387,1002.292c0,212.72,83.36,397.634,250.08,554.777c147.561,126.473,311.403,189.721,491.541,189.721
	h8.629c228.038,0,422.552-95.825,583.519-287.451c105.401-137.978,158.103-289.368,158.103-454.182v-8.629
	c0-195.461-72.825-369.828-218.474-523.159c-153.296-145.637-329.604-218.461-528.9-218.461
	c-229.961,0-424.47,94.866-583.524,284.585C309.04,679.389,255.387,833.655,255.387,1002.292z"/>
<path fill="#317698" d="M384.735,726.348h5.753l319.068,879.599h-2.876c-132.225-61.331-236.667-164.814-313.321-310.451
	c-44.077-99.648-66.113-198.35-66.113-296.08C327.246,911.262,346.411,820.231,384.735,726.348z"/>
<path fill="#317698" d="M1002.748,326.785c170.556,0,321.957,59.4,454.183,178.214v2.865l-8.63-2.865
	c-53.659,0-91.019,32.577-112.102,97.73v25.865c0,38.33,26.836,97.754,80.483,178.238c26.824,51.718,40.248,107.307,40.248,166.708
	c0,49.824-23.959,142.772-71.866,278.833l-45.988,158.102c-3.836,0-28.741-71.865-74.742-215.597l-172.473-511.665h2.877
	c67.071,0,100.606-8.63,100.606-25.854v-8.641c-3.835-13.412-10.535-21.071-20.124-22.989l-186.843,8.63l-189.714-8.63
	c-9.583,5.753-14.371,14.359-14.371,25.865h-2.876c0,21.094,27.789,31.618,83.366,31.618l14.371,2.876l103.484,290.327
	l-146.602,439.811h-2.876L588.826,686.089v-2.876h2.877c65.153,0,97.73-7.659,97.73-22.989v-8.629
	c0-11.506-6.706-20.112-20.118-25.865l-218.467,8.63h-11.494v-5.765c19.165-34.494,64.195-84.318,135.102-149.472
	C702.851,377.556,845.617,326.785,1002.748,326.785z"/>
<path fill="#317698" d="M1011.378,1056.899c3.835,0,30.671,71.877,80.483,215.597l135.113,365.057h-2.889
	c-74.729,24.918-149.46,37.371-224.202,37.371c-67.077,0-130.313-9.576-189.72-28.741L1011.378,1056.899z"/>
<path fill="#317698" d="M1589.155,677.471h5.753c53.648,107.307,80.483,215.573,80.483,324.821
	c0,195.473-76.647,364.11-229.967,505.912c-36.413,30.671-70.907,55.577-103.484,74.742h-2.864v-2.888l235.709-687.015
	c13.411-55.553,20.123-104.431,20.123-146.584L1589.155,677.471z"/>
</svg>
